<svg width="20" height="20" viewBox="0 0 20 20" fill="none" xmlns="http://www.w3.org/2000/svg">
<path fill-rule="evenodd" clip-rule="evenodd" d="M18.9914 15H18.0434V8C18.0434 3.58172 14.4309 0 9.97479 0C5.51863 0 1.9062 3.58172 1.9062 8V15H1.00857C0.451553 15 0 15.4477 0 16C0 16.5523 0.451553 17 1.00857 17H6.94907C6.94907 18.6569 8.30373 20 9.97479 20C11.6458 20 13.0005 18.6569 13.0005 17H18.9914C19.5484 17 20 16.5523 20 16C20 15.4477 19.5484 15 18.9914 15ZM9.97479 18C9.41777 18 8.96621 17.5523 8.96621 17H10.9834C10.9834 17.5523 10.5318 18 9.97479 18ZM3.92335 15H11.9919H16.0262V8C16.0262 4.68629 13.3169 2 9.97479 2C6.63267 2 3.92335 4.68629 3.92335 8V15Z" fill="#4E60FF"/>
<circle cx="16" cy="4" r="3.5" fill="#FF4B4B" stroke="#ECF3FF"/>
</svg>
