<svg width="16" height="16" viewBox="0 0 16 16" fill="none" xmlns="http://www.w3.org/2000/svg">
<circle cx="7.99984" cy="7.99996" r="3.33333" fill="#C9CDD2"/>
<path fill-rule="evenodd" clip-rule="evenodd" d="M7.99988 2.83331C10.5132 2.83331 12.8532 4.55331 14.5865 7.67331C14.7056 7.87958 14.7056 8.13371 14.5865 8.33998C12.8532 11.46 10.5132 13.18 7.99988 13.18C5.48655 13.18 3.15322 11.46 1.41988 8.33998C1.30079 8.13371 1.30079 7.87958 1.41988 7.67331C3.15322 4.55331 5.48655 2.83331 7.99988 2.83331ZM3.33322 7.99998C3.33322 10.5773 5.42255 12.6666 7.99988 12.6666C10.5772 12.6666 12.6665 10.5773 12.6665 7.99998C12.6665 5.42265 10.5772 3.33331 7.99988 3.33331C5.42255 3.33331 3.33322 5.42265 3.33322 7.99998Z" fill="#C9CDD2"/>
</svg>
