<svg width="20" height="20" viewBox="0 0 20 20" fill="none" xmlns="http://www.w3.org/2000/svg">
<path d="M18.0915 16.9084C18.2492 17.0649 18.338 17.2779 18.338 17.5001C18.338 17.7223 18.2492 17.9353 18.0915 18.0918C17.935 18.2495 17.722 18.3383 17.4998 18.3383C17.2776 18.3383 17.0646 18.2495 16.9081 18.0918L9.99979 11.1751L3.09145 18.0918C2.93498 18.2495 2.72198 18.3383 2.49979 18.3383C2.27759 18.3383 2.06459 18.2495 1.90812 18.0918C1.75036 17.9353 1.66162 17.7223 1.66162 17.5001C1.66162 17.2779 1.75036 17.0649 1.90812 16.9084L8.82479 10.0001L1.90812 3.09176C1.69674 2.88038 1.61418 2.57228 1.69155 2.28353C1.76893 1.99477 1.99447 1.76923 2.28322 1.69186C2.57197 1.61449 2.88007 1.69704 3.09145 1.90843L9.99979 8.82509L16.9081 1.90843C17.2349 1.58166 17.7647 1.58166 18.0915 1.90843C18.4182 2.23519 18.4182 2.76499 18.0915 3.09176L11.1748 10.0001L18.0915 16.9084Z" fill="#454C53"/>
</svg>
