<svg width="20" height="20" viewBox="0 0 20 20" fill="none" xmlns="http://www.w3.org/2000/svg">
<path fill-rule="evenodd" clip-rule="evenodd" d="M13.5915 12.4167L18.0915 16.9083C18.2493 17.0648 18.338 17.2778 18.338 17.5C18.338 17.7222 18.2493 17.9352 18.0915 18.0917C17.935 18.2494 17.722 18.3382 17.4998 18.3382C17.2776 18.3382 17.0646 18.2494 16.9082 18.0917L12.4165 13.5917C11.2519 14.5058 9.81372 15.0018 8.33317 15C4.65127 15 1.6665 12.0152 1.6665 8.33333C1.6665 4.65143 4.65127 1.66666 8.33317 1.66666C12.0151 1.66666 14.9998 4.65143 14.9998 8.33333C15.0017 9.81388 14.5057 11.252 13.5915 12.4167ZM8.33317 3.33333C5.57175 3.33333 3.33317 5.57191 3.33317 8.33333C3.33317 11.0948 5.57175 13.3333 8.33317 13.3333C11.0946 13.3333 13.3332 11.0948 13.3332 8.33333C13.3332 5.57191 11.0946 3.33333 8.33317 3.33333Z" fill="#9EA4AA"/>
</svg>
