<svg width="16" height="16" viewBox="0 0 16 16" fill="none" xmlns="http://www.w3.org/2000/svg">
<path fill-rule="evenodd" clip-rule="evenodd" d="M8.00016 1.33334C4.31826 1.33334 1.3335 4.3181 1.3335 8C1.3335 11.6819 4.31826 14.6667 8.00016 14.6667C11.6821 14.6667 14.6668 11.6819 14.6668 8C14.6668 6.23189 13.9644 4.5362 12.7142 3.28596C11.464 2.03571 9.76827 1.33334 8.00016 1.33334ZM3.3335 8C3.3335 5.42267 5.42283 3.33334 8.00016 3.33334C10.5775 3.33334 12.6668 5.42267 12.6668 8C12.6668 10.5773 10.5775 12.6667 8.00016 12.6667C5.42283 12.6667 3.3335 10.5773 3.3335 8ZM4.66683 8C4.66683 9.84095 6.15921 11.3333 8.00016 11.3333C9.84111 11.3333 11.3335 9.84095 11.3335 8C11.3335 6.15905 9.84111 4.66667 8.00016 4.66667C6.15921 4.66667 4.66683 6.15905 4.66683 8ZM2.66683 8C2.66683 10.9455 5.05464 13.3333 8.00016 13.3333C9.41465 13.3333 10.7712 12.7714 11.7714 11.7712C12.7716 10.771 13.3335 9.41449 13.3335 8C13.3335 5.05448 10.9457 2.66667 8.00016 2.66667C5.05464 2.66667 2.66683 5.05448 2.66683 8Z" fill="#C9CDD2"/>
</svg>
