<svg width="20" height="20" viewBox="0 0 20 20" fill="none" xmlns="http://www.w3.org/2000/svg">
<path fill-rule="evenodd" clip-rule="evenodd" d="M18.3333 9.99996C18.3333 14.6023 14.6023 18.3333 9.99996 18.3333C5.39759 18.3333 1.66663 14.6023 1.66663 9.99996C1.66663 5.39759 5.39759 1.66663 9.99996 1.66663C12.2101 1.66663 14.3297 2.5446 15.8925 4.1074C17.4553 5.67021 18.3333 7.78982 18.3333 9.99996ZM13.925 6.90829C14.0827 7.06476 14.1715 7.27776 14.1715 7.49996C14.1715 7.72216 14.0827 7.93515 13.925 8.09163L8.92496 13.0916C8.76849 13.2494 8.55549 13.3381 8.33329 13.3381C8.11109 13.3381 7.8981 13.2494 7.74163 13.0916L6.07496 11.425C5.86358 11.2136 5.78102 10.9055 5.85839 10.6167C5.93577 10.328 6.16131 10.1024 6.45006 10.0251C6.73881 9.94769 7.04691 10.0302 7.25829 10.2416L8.33329 11.325L12.7416 6.90829C12.8981 6.75053 13.1111 6.66179 13.3333 6.66179C13.5555 6.66179 13.7685 6.75053 13.925 6.90829ZM9.99996 3.33329C13.6819 3.33329 16.6666 6.31806 16.6666 9.99996C16.6666 11.7681 15.9642 13.4638 14.714 14.714C13.4638 15.9642 11.7681 16.6666 9.99996 16.6666C6.31806 16.6666 3.33329 13.6819 3.33329 9.99996C3.33329 6.31806 6.31806 3.33329 9.99996 3.33329Z" fill="#9EA4AA"/>
</svg>
