<svg width="20" height="20" viewBox="0 0 20 20" fill="none" xmlns="http://www.w3.org/2000/svg">
<path fill-rule="evenodd" clip-rule="evenodd" d="M1.66669 9.99996C1.66669 5.39759 5.39765 1.66663 10 1.66663C12.2102 1.66663 14.3298 2.5446 15.8926 4.1074C17.4554 5.67021 18.3334 7.78982 18.3334 9.99996C18.3334 14.6023 14.6024 18.3333 10 18.3333C5.39765 18.3333 1.66669 14.6023 1.66669 9.99996ZM8.92502 13.0916L13.925 8.09163C14.2518 7.76486 14.2518 7.23506 13.925 6.90829C13.5983 6.58152 13.0685 6.58152 12.7417 6.90829L8.33335 11.325L7.25835 10.2416C7.04697 10.0302 6.73888 9.94769 6.45012 10.0251C6.16137 10.1024 5.93583 10.328 5.85846 10.6167C5.78108 10.9055 5.86364 11.2136 6.07502 11.425L7.74169 13.0916C7.89816 13.2494 8.11116 13.3381 8.33335 13.3381C8.55555 13.3381 8.76855 13.2494 8.92502 13.0916Z" fill="#4E60FF"/>
</svg>
