<svg width="17" height="17" viewBox="0 0 17 17" fill="none" xmlns="http://www.w3.org/2000/svg">
<g id="Group">
<g id="Layer_65">
<path id="Path" d="M16.4298 15.2451C16.5876 15.4016 16.6763 15.6146 16.6763 15.8368C16.6763 16.059 16.5876 16.272 16.4298 16.4284C16.2734 16.5862 16.0604 16.6749 15.8382 16.6749C15.616 16.6749 15.403 16.5862 15.2465 16.4284L8.33817 9.51176L1.42983 16.4284C1.27336 16.5862 1.06036 16.6749 0.838165 16.6749C0.615967 16.6749 0.402971 16.5862 0.246499 16.4284C0.0887381 16.272 0 16.059 0 15.8368C0 15.6146 0.0887381 15.4016 0.246499 15.2451L7.16317 8.33676L0.246499 1.42843C0.0351165 1.21705 -0.0474377 0.90895 0.0299336 0.620197C0.107305 0.331444 0.332847 0.105902 0.6216 0.0285304C0.910354 -0.0488408 1.21845 0.0337133 1.42983 0.245095L8.33817 7.16176L15.2465 0.245095C15.5733 -0.0816731 16.1031 -0.0816731 16.4298 0.245095C16.7566 0.571864 16.7566 1.10166 16.4298 1.42843L9.51316 8.33676L16.4298 15.2451Z" fill="#454C53"/>
</g>
</g>
</svg>
