<svg width="18" height="18" viewBox="0 0 18 18" fill="none" xmlns="http://www.w3.org/2000/svg">
<g id="Group">
<g id="Layer_65">
<path id="Path" d="M17.0919 15.9083C17.2497 16.0648 17.3384 16.2778 17.3384 16.5C17.3384 16.7222 17.2497 16.9352 17.0919 17.0917C16.9355 17.2494 16.7225 17.3382 16.5003 17.3382C16.2781 17.3382 16.0651 17.2494 15.9086 17.0917L9.00027 10.175L2.09194 17.0917C1.93547 17.2494 1.72247 17.3382 1.50027 17.3382C1.27808 17.3382 1.06508 17.2494 0.908608 17.0917C0.750847 16.9352 0.662109 16.7222 0.662109 16.5C0.662109 16.2778 0.750847 16.0648 0.908608 15.9083L7.82527 9L0.908608 2.09167C0.697226 1.88029 0.614672 1.57219 0.692043 1.28344C0.769414 0.994682 0.994956 0.76914 1.28371 0.691769C1.57246 0.614398 1.88056 0.696952 2.09194 0.908334L9.00027 7.825L15.9086 0.908334C16.2354 0.581565 16.7652 0.581565 17.0919 0.908334C17.4187 1.2351 17.4187 1.7649 17.0919 2.09167L10.1753 9L17.0919 15.9083Z" fill="#FCFCFF"/>
</g>
</g>
</svg>
