<svg width="20" height="24" viewBox="0 0 20 24" fill="none" xmlns="http://www.w3.org/2000/svg">
<g id="Group">
<g id="Layer_77">
<path id="Shape" fill-rule="evenodd" clip-rule="evenodd" d="M17 8.28572V10.5714C18.6569 10.5714 20 12.1065 20 14V19.7143C20 21.6078 18.6569 23.1429 17 23.1429H3C1.34315 23.1429 0 21.6078 0 19.7143V14C0 12.1065 1.34315 10.5714 3 10.5714V8.28572C3 3.86744 6.13401 0.285721 10 0.285721C13.866 0.285721 17 3.86744 17 8.28572ZM5 10.5714H15V8.28572C15 5.12981 12.7614 2.57144 10 2.57144C7.23858 2.57144 5 5.12981 5 8.28572V10.5714Z" fill="#C9CDD2"/>
</g>
</g>
</svg>
