<svg width="141" height="46" viewBox="0 0 141 46" fill="none" xmlns="http://www.w3.org/2000/svg">
<path d="M45.08 29.568H0.92V22.416H18.344V19.296H2.744V1.392H42.68V8.064H11.768V12.624H42.968V19.296H27.656V22.416H45.08V29.568ZM2.936 31.68H12.296V38.784H43.592V45.648H2.936V31.68ZM83 25.632H76.568V43.584H49.928V2.064H58.664V13.824H67.928V2.064H76.568V17.904H83V0.863997H92.12V45.648H83V25.632ZM67.928 35.952V21.36H58.664V35.952H67.928ZM131 0.863997H140.12V45.648H131V0.863997ZM127.064 43.248H98.072V2.4H107.192V35.616H127.064V43.248Z" fill="white"/>
</svg>
