<svg width="53" height="18" viewBox="0 0 53 18" fill="none" xmlns="http://www.w3.org/2000/svg">
<rect width="53" height="18" fill="#FCFCFF"/>
<path d="M24.9258 8.75684V9.44434H21.4668V5.2334H24.8076V5.9209H22.3154V8.75684H24.9258ZM16.8799 12.6455V11.9473H20.8008V9.92773H21.6279V11.9473H25.624V12.6455H16.8799ZM17.6426 9.44434V5.2334H20.8867V5.93164H18.4805V8.74609C19.2861 8.74072 20.0864 8.68164 20.9727 8.47754L21.0479 9.18652C20.0005 9.42285 19.1196 9.44971 18.1689 9.44434H17.6426ZM34.1104 7.2207V7.89746H27.5684V4.6748H28.4062V7.2207H34.1104ZM26.376 9.88477V9.19727H35.1201V9.88477H26.376ZM27.5146 13.6338V10.8623H28.3525V12.9355H34.1641V13.6338H27.5146Z" fill="#C9CDD2"/>
</svg>
