<svg width="14" height="14" viewBox="0 0 14 14" fill="none" xmlns="http://www.w3.org/2000/svg">
<g id="Group">
<g id="Layer_70">
<path id="Shape" fill-rule="evenodd" clip-rule="evenodd" d="M6.99967 0.333344C3.31778 0.333344 0.333008 3.31811 0.333008 7.00001C0.333008 10.6819 3.31778 13.6667 6.99967 13.6667C10.6816 13.6667 13.6663 10.6819 13.6663 7.00001C13.6663 5.2319 12.964 3.53621 11.7137 2.28596C10.4635 1.03572 8.76778 0.333344 6.99967 0.333344ZM2.33301 7.00001C2.33301 4.42268 4.42235 2.33334 6.99967 2.33334C9.577 2.33334 11.6663 4.42268 11.6663 7.00001C11.6663 9.57734 9.577 11.6667 6.99967 11.6667C4.42235 11.6667 2.33301 9.57734 2.33301 7.00001ZM3.66634 7.00001C3.66634 8.84096 5.15873 10.3333 6.99967 10.3333C8.84062 10.3333 10.333 8.84096 10.333 7.00001C10.333 5.15906 8.84062 3.66668 6.99967 3.66668C5.15873 3.66668 3.66634 5.15906 3.66634 7.00001ZM1.66634 7.00001C1.66634 9.94553 4.05416 12.3333 6.99967 12.3333C8.41416 12.3333 9.77072 11.7714 10.7709 10.7712C11.7711 9.77105 12.333 8.4145 12.333 7.00001C12.333 4.05449 9.94519 1.66668 6.99967 1.66668C4.05416 1.66668 1.66634 4.05449 1.66634 7.00001Z" fill="#4E60FF"/>
</g>
</g>
</svg>
