<svg width="14" height="14" viewBox="0 0 14 14" fill="none" xmlns="http://www.w3.org/2000/svg">
<g id="Group">
<g id="Layer_70">
<path id="Shape" fill-rule="evenodd" clip-rule="evenodd" d="M7.00016 0.333374C3.31826 0.333374 0.333496 3.31814 0.333496 7.00004C0.333496 10.6819 3.31826 13.6667 7.00016 13.6667C10.6821 13.6667 13.6668 10.6819 13.6668 7.00004C13.6668 5.23193 12.9644 3.53624 11.7142 2.286C10.464 1.03575 8.76827 0.333374 7.00016 0.333374ZM2.3335 7.00004C2.3335 4.42271 4.42283 2.33337 7.00016 2.33337C9.57749 2.33337 11.6668 4.42271 11.6668 7.00004C11.6668 9.57737 9.57749 11.6667 7.00016 11.6667C4.42283 11.6667 2.3335 9.57737 2.3335 7.00004ZM3.66683 7.00004C3.66683 8.84099 5.15921 10.3334 7.00016 10.3334C8.84111 10.3334 10.3335 8.84099 10.3335 7.00004C10.3335 5.15909 8.84111 3.66671 7.00016 3.66671C5.15921 3.66671 3.66683 5.15909 3.66683 7.00004ZM1.66683 7.00004C1.66683 9.94556 4.05464 12.3334 7.00016 12.3334C8.41465 12.3334 9.7712 11.7715 10.7714 10.7713C11.7716 9.77108 12.3335 8.41453 12.3335 7.00004C12.3335 4.05452 9.94568 1.66671 7.00016 1.66671C4.05464 1.66671 1.66683 4.05452 1.66683 7.00004Z" fill="#C9CDD2"/>
</g>
</g>
</svg>
