<svg width="20" height="20" viewBox="0 0 20 20" fill="none" xmlns="http://www.w3.org/2000/svg">
<path fill-rule="evenodd" clip-rule="evenodd" d="M4.20984 4.20982C7.42429 0.995373 12.6218 0.950208 15.8917 4.10831C19.0498 7.37813 19.0046 12.5757 15.7902 15.7901C12.5757 19.0046 7.37816 19.0497 4.10833 15.8916C0.950231 12.6218 0.995396 7.42427 4.20984 4.20982ZM13.7965 12.9583C13.7965 12.7361 13.7078 12.5231 13.55 12.3666L11.175 9.99998L13.55 7.63331C13.7614 7.42193 13.8439 7.11383 13.7666 6.82508C13.6892 6.53632 13.4637 6.31078 13.1749 6.23341C12.8861 6.15604 12.578 6.23859 12.3667 6.44998L10 8.82498L7.63333 6.44998C7.42195 6.23859 7.11385 6.15604 6.8251 6.23341C6.53635 6.31078 6.31081 6.53632 6.23343 6.82508C6.15606 7.11383 6.23862 7.42193 6.45 7.63331L8.825 9.99998L6.45 12.3666C6.29224 12.5231 6.2035 12.7361 6.2035 12.9583C6.2035 13.1805 6.29224 13.3935 6.45 13.55C6.60726 13.706 6.82016 13.7929 7.04167 13.7916C7.26317 13.7929 7.47607 13.706 7.63333 13.55L10 11.175L12.3667 13.55C12.5239 13.706 12.7368 13.7929 12.9583 13.7916C13.1798 13.7929 13.3927 13.706 13.55 13.55C13.7078 13.3935 13.7965 13.1805 13.7965 12.9583Z" fill="#C9CDD2"/>
</svg>
