<svg width="22" height="22" viewBox="0 0 22 22" fill="none" xmlns="http://www.w3.org/2000/svg">
<g id="Iconography - Caesarzkn">
<g id="Group">
<g id="Layer_65">
<path id="Path" d="M19.9009 18.5992C20.0745 18.7713 20.1721 19.0056 20.1721 19.25C20.1721 19.4944 20.0745 19.7287 19.9009 19.9008C19.7288 20.0744 19.4945 20.172 19.2501 20.172C19.0057 20.172 18.7714 20.0744 18.5993 19.9008L11.0001 12.2925L3.40094 19.9008C3.22882 20.0744 2.99452 20.172 2.75011 20.172C2.50569 20.172 2.27139 20.0744 2.09927 19.9008C1.92574 19.7287 1.82812 19.4944 1.82812 19.25C1.82812 19.0056 1.92574 18.7713 2.09927 18.5992L9.70761 11L2.09927 3.40083C1.86675 3.16831 1.77594 2.8294 1.86105 2.51178C1.94616 2.19415 2.19426 1.94605 2.51189 1.86094C2.82951 1.77583 3.16842 1.86664 3.40094 2.09916L11.0001 9.7075L18.5993 2.09916C18.9587 1.73972 19.5415 1.73972 19.9009 2.09916C20.2604 2.45861 20.2604 3.04139 19.9009 3.40083L12.2926 11L19.9009 18.5992Z" fill="#FF475D"/>
</g>
</g>
</g>
</svg>
