<svg width="19" height="19" viewBox="0 0 19 19" fill="none" xmlns="http://www.w3.org/2000/svg">
<path fill-rule="evenodd" clip-rule="evenodd" d="M15.625 0.79071H3.375C1.92525 0.79071 0.75 1.99329 0.75 3.47676V16.0116C0.75 17.4951 1.92525 18.6977 3.375 18.6977H15.625C17.0747 18.6977 18.25 17.4951 18.25 16.0116V3.47676C18.25 1.99329 17.0747 0.79071 15.625 0.79071ZM5.93 14.5612C5.88835 14.6711 5.82591 14.7715 5.74625 14.8566C5.6612 14.9357 5.56354 14.9993 5.4575 15.0447C5.35231 15.0905 5.23934 15.1149 5.125 15.1163C4.89333 15.113 4.67143 15.0203 4.50375 14.8566C4.42409 14.7715 4.36164 14.6711 4.32 14.5612C4.2264 14.3445 4.2264 14.0974 4.32 13.8807C4.36164 13.7708 4.42409 13.6704 4.50375 13.5852C4.75537 13.3312 5.13165 13.257 5.4575 13.3972C5.56354 13.4426 5.6612 13.5062 5.74625 13.5852C5.82591 13.6704 5.88835 13.7708 5.93 13.8807C6.0236 14.0974 6.0236 14.3445 5.93 14.5612ZM5.9475 10.0844C5.97273 10.0337 5.99042 9.97936 6 9.92327C6.00429 9.86366 6.00429 9.80381 6 9.7442C5.99678 9.50714 5.90614 9.28008 5.74625 9.1085C5.6612 9.02941 5.56354 8.96582 5.4575 8.92048C5.13165 8.78027 4.75537 8.85445 4.50375 9.1085C4.42272 9.19255 4.36009 9.29326 4.32 9.40397C4.27516 9.51161 4.25138 9.6272 4.25 9.7442C4.24866 9.98219 4.33996 10.2109 4.50375 10.3799C4.67143 10.5435 4.89333 10.6362 5.125 10.6395C5.24524 10.6405 5.36438 10.6161 5.475 10.5679C5.58104 10.5226 5.6787 10.459 5.76375 10.3799L5.86875 10.2456C5.90187 10.1957 5.92835 10.1415 5.9475 10.0844ZM5.74625 5.90315C5.6612 5.98224 5.56354 6.04583 5.4575 6.09118C5.35366 6.1413 5.23978 6.16583 5.125 6.1628C4.89333 6.15951 4.67143 6.06676 4.50375 5.90315C4.33996 5.73418 4.24866 5.50544 4.25 5.26745C4.25138 5.15045 4.27516 5.03486 4.32 4.92722C4.36431 4.81872 4.42646 4.71879 4.50375 4.63176C4.75537 4.37771 5.13165 4.30352 5.4575 4.44373C5.56354 4.48908 5.6612 4.55267 5.74625 4.63176C5.82354 4.71879 5.88569 4.81872 5.93 4.92722C5.97484 5.03486 5.99862 5.15045 6 5.26745C5.99678 5.50451 5.90614 5.73157 5.74625 5.90315ZM8.625 15.1163H13.875C14.3582 15.1163 14.75 14.7154 14.75 14.2209C14.75 13.7265 14.3582 13.3256 13.875 13.3256H8.625C8.14175 13.3256 7.75 13.7265 7.75 14.2209C7.75 14.7154 8.14175 15.1163 8.625 15.1163ZM13.875 10.6395H8.625C8.14175 10.6395 7.75 10.2387 7.75 9.7442C7.75 9.24971 8.14175 8.84885 8.625 8.84885H13.875C14.3582 8.84885 14.75 9.24971 14.75 9.7442C14.75 10.2387 14.3582 10.6395 13.875 10.6395ZM8.625 6.1628H13.875C14.3582 6.1628 14.75 5.76194 14.75 5.26745C14.75 4.77297 14.3582 4.37211 13.875 4.37211H8.625C8.14175 4.37211 7.75 4.77297 7.75 5.26745C7.75 5.76194 8.14175 6.1628 8.625 6.1628Z" fill="current"/>
</svg>
