<svg width="21" height="22" viewBox="0 0 21 22" fill="none" xmlns="http://www.w3.org/2000/svg">
<path d="M19.7577 8.86457L18.1669 7.41749L17.3427 6.70832L11.1327 1.1979C10.7709 0.880077 10.2295 0.880077 9.86772 1.1979L3.65772 6.70832L2.83355 7.41749L1.24272 8.86457C0.872724 9.21996 0.848226 9.80369 1.18715 10.1888C1.52607 10.574 2.10818 10.6239 2.50772 10.3021L2.83355 10.0146V18.2083C2.83355 19.7961 4.12074 21.0833 5.70855 21.0833H7.62522V15.3333C7.62522 13.7455 8.9124 12.4583 10.5002 12.4583C12.088 12.4583 13.3752 13.7455 13.3752 15.3333V21.0833H15.2919C16.8797 21.0833 18.1669 19.7961 18.1669 18.2083V10.0146L18.4927 10.3021C18.8899 10.6509 19.4944 10.6123 19.844 10.2158C20.1928 9.81869 20.1542 9.21413 19.7577 8.86457Z" fill="current"/>
</svg>
