<svg width="21" height="19" viewBox="0 0 21 19" fill="none" xmlns="http://www.w3.org/2000/svg">
<path d="M3.10265 17.2143L0.71875 18.4062C1.6331 16.5775 1.72178 14.445 0.962426 12.5467L0.71875 11.9375L7.1875 16.25C5.76949 16.25 4.37095 16.5801 3.10265 17.2143Z" fill="current"/>
<path d="M0 9.0625C0 4.29904 3.86154 0.4375 8.625 0.4375H11.5C16.2635 0.4375 20.125 4.29904 20.125 9.0625C20.125 13.826 16.2635 17.6875 11.5 17.6875H8.625C3.86154 17.6875 0 13.826 0 9.0625Z" fill="current"/>
<path d="M9.5332 11.3984C9.54492 9.9043 9.9668 9.44727 10.7051 8.99609C11.2031 8.67383 11.5898 8.28125 11.584 7.69531C11.5898 7.03906 11.0742 6.61719 10.4355 6.61719C9.85547 6.61719 9.29297 6.99219 9.25195 7.77734H7.78711C7.82812 6.20117 9 5.39844 10.4473 5.39844C12.0293 5.39844 13.1133 6.27734 13.1191 7.67188C13.1133 8.62695 12.6387 9.24805 11.877 9.69922C11.1973 10.1152 10.916 10.5195 10.9043 11.3984V11.5039H9.5332V11.3984ZM9.3457 13.1797C9.33984 12.6875 9.75586 12.2832 10.2598 12.2773C10.7461 12.2832 11.1621 12.6875 11.1621 13.1797C11.1621 13.6836 10.7461 14.0938 10.2598 14.0938C9.75586 14.0938 9.33984 13.6836 9.3457 13.1797Z" fill="current"/>
</svg>
