<svg width="349" height="50" viewBox="0 0 349 50" fill="none" xmlns="http://www.w3.org/2000/svg">
<path d="M76.3613 36.543V44.3008H75.4824V40.4336H74.0176V43.9961H73.1621V36.7422H74.0176V39.6602H75.4824V36.543H76.3613ZM67.9707 38.1836V37.4336H71.9199V40.4102H68.8848V41.9922C70.2559 41.9805 71.3105 41.9219 72.541 41.6758L72.6465 42.4141C71.293 42.6777 70.1855 42.7363 68.6738 42.7305H67.9941V39.6836H71.041V38.1836H67.9707ZM69.5293 46.7266V43.5859H70.4434V45.9531H76.6777V46.7266H69.5293ZM83.252 37.2109V37.9727H79.373V41.2773C81.3125 41.2773 82.4785 41.2188 83.8262 40.9492L83.9316 41.6992C82.502 41.9805 81.2891 42.0449 79.2324 42.0508H78.459V37.2109H83.252ZM79.7129 46.8086V43.0938H86.5215V46.8086H79.7129ZM80.627 46.0469H85.6191V43.832H80.627V46.0469ZM82.6309 39.8359V39.0742H85.5957V36.5312H86.5215V42.5664H85.5957V39.8359H82.6309ZM96.6699 37.6211C96.6641 40.627 95.6387 43.3809 91.8887 45.2266L91.373 44.5234C93.3301 43.5684 94.5078 42.3613 95.1406 40.9609L91.5723 41.3008L91.4199 40.4922L95.4219 40.2227C95.6094 39.6367 95.7148 39.0215 95.7559 38.3828H91.9473V37.6211H96.6699ZM98.416 46.9492V36.5312H99.3301V40.7734H101.018V41.5469H99.3301V46.9492H98.416ZM110.053 41.5469V42.3086H102.857V37.5039H109.947V38.2656H103.771V41.5469H110.053ZM101.639 45.5312V44.7578H111.178V45.5312H101.639ZM121.537 41.3711V42.0977H111.998V41.3711H121.537ZM113.146 43.6211V42.9297H120.342V45.1445H114.084V46.1406H120.682V46.8086H113.158V44.5117H119.428V43.6211H113.146ZM113.205 37.5156V36.8477H120.307V39.0039H114.154V39.918H120.494V40.5859H113.24V38.3711H119.381V37.5156H113.205ZM133.537 36.543V39.9766H135.107V40.75H133.537V44.3477H132.623V36.543H133.537ZM125.416 38.5703V37.8203H128.064V36.543H128.979V37.8203H131.627V38.5703H125.416ZM126.014 41.0898C126.008 39.9062 127.016 39.1445 128.521 39.1445C130.01 39.1445 131.018 39.9062 131.029 41.0898C131.018 42.2617 130.01 43.0176 128.521 43.0117C127.016 43.0176 126.008 42.2617 126.014 41.0898ZM126.893 41.0898C126.887 41.8223 127.537 42.2969 128.521 42.2852C129.494 42.2969 130.15 41.8223 130.162 41.0898C130.15 40.3457 129.494 39.8652 128.521 39.8711C127.537 39.8652 126.887 40.3457 126.893 41.0898ZM127.021 46.7266V43.7266H127.924V45.9531H134.018V46.7266H127.021ZM144.658 36.5312V46.9492H143.756V41.5H142.314V46.4336H141.436V36.8125H142.314V40.7383H143.756V36.5312H144.658ZM135.775 44.0664C138.195 42.7129 139.191 40.8086 139.35 38.6523H136.174V37.8906H140.252C140.24 40.5391 139.309 43.041 136.314 44.7109L135.775 44.0664ZM150.939 36.707V37.8438H152.604V36.707H153.482V40.3633H154.314V36.707H155.193V37.8438H156.869V36.707H157.736V40.457H154.35V41.6289H158.639V42.3672H149.146V41.6289H153.436V40.457H150.037V36.707H150.939ZM150.354 46.8086V43.0703H151.268V44.125H156.494V43.0703H157.432V46.8086H150.354ZM150.939 39.6953H152.604V38.5703H150.939V39.6953ZM151.268 46.0703H156.494V44.8516H151.268V46.0703ZM155.193 39.6953H156.869V38.5703H155.193V39.6953ZM164.264 36.7188C166.578 36.7188 167.938 37.3574 167.943 38.5117C167.938 39.6953 166.578 40.334 164.264 40.3398C161.938 40.334 160.572 39.6953 160.572 38.5117C160.572 37.3574 161.938 36.7188 164.264 36.7188ZM159.518 41.793V41.043H169.01V41.793H159.518ZM160.666 43.3984V42.6953H167.791V45.0273H161.604V46.1055H168.107V46.832H160.689V44.3477H166.889V43.3984H160.666ZM161.533 38.5117C161.521 39.2383 162.535 39.6367 164.264 39.6367C165.992 39.6367 167 39.2383 167.006 38.5117C167 37.8262 165.992 37.416 164.264 37.4102C162.535 37.416 161.521 37.8262 161.533 38.5117ZM179.803 36.7656V40.7969H181.068V36.5312H181.947V46.9492H181.068V41.5586H179.803V46.4336H178.947V36.7656H179.803ZM173.217 44.2305V37.8555H175.479V38.6172H174.072V43.4512C174.465 43.4336 174.98 43.3867 175.549 43.2461L175.631 44.0312C174.752 44.2246 174.072 44.2363 173.627 44.2305H173.217ZM175.936 44.2305V37.8555H178.244V38.6172H176.768V43.4512C177.26 43.4395 177.84 43.3926 178.467 43.2109L178.549 43.9961C177.682 44.2246 176.961 44.2363 176.357 44.2305H175.936ZM188.51 37.5859V44.3008H183.705V37.5859H188.51ZM184.596 43.5508H187.596V38.3242H184.596V43.5508ZM190.42 46.9492V36.5312H191.334V40.6914H193.08V41.4883H191.334V46.9492H190.42ZM201.705 36.5312V40.6562H203.451V41.4297H201.705V46.9727H200.791V36.5312H201.705ZM194.1 44.3594V37.5508H198.963V38.3125H195.014V43.5859C196.9 43.5801 198.23 43.498 199.783 43.2109L199.9 44.0078C198.266 44.3008 196.9 44.3594 194.92 44.3594H194.1ZM207.4 46L207.389 45.2266L210.283 42.1797C211.285 41.1133 211.766 40.5391 211.771 39.7539C211.766 38.8809 211.039 38.3184 210.084 38.3125C209.07 38.3184 208.438 38.957 208.432 39.9062H207.436C207.424 38.4062 208.584 37.3984 210.119 37.3984C211.66 37.3984 212.75 38.4355 212.756 39.7539C212.75 40.7031 212.311 41.4414 210.811 42.9883L208.865 44.9922V45.0625H212.908V46H207.4ZM217.221 46.1172C215.34 46.1172 214.25 44.5352 214.256 41.7578C214.25 39.0039 215.352 37.3984 217.221 37.3984C219.084 37.3984 220.186 39.0039 220.186 41.7578C220.186 44.5352 219.102 46.1172 217.221 46.1172ZM215.275 41.7578C215.281 43.9551 215.99 45.1797 217.221 45.1797C218.445 45.1797 219.16 43.9551 219.154 41.7578C219.16 39.5605 218.439 38.3184 217.221 38.3125C216.002 38.3184 215.281 39.5605 215.275 41.7578ZM224.369 46.1172C222.488 46.1172 221.398 44.5352 221.404 41.7578C221.398 39.0039 222.5 37.3984 224.369 37.3984C226.232 37.3984 227.334 39.0039 227.334 41.7578C227.334 44.5352 226.25 46.1172 224.369 46.1172ZM222.424 41.7578C222.43 43.9551 223.139 45.1797 224.369 45.1797C225.594 45.1797 226.309 43.9551 226.303 41.7578C226.309 39.5605 225.588 38.3184 224.369 38.3125C223.15 38.3184 222.43 39.5605 222.424 41.7578ZM231.518 46.1172C229.637 46.1172 228.547 44.5352 228.553 41.7578C228.547 39.0039 229.648 37.3984 231.518 37.3984C233.381 37.3984 234.482 39.0039 234.482 41.7578C234.482 44.5352 233.398 46.1172 231.518 46.1172ZM229.572 41.7578C229.578 43.9551 230.287 45.1797 231.518 45.1797C232.742 45.1797 233.457 43.9551 233.451 41.7578C233.457 39.5605 232.736 38.3184 231.518 38.3125C230.299 38.3184 229.578 39.5605 229.572 41.7578ZM235.9 48.3906V39.6367H236.873V40.6445H236.99C237.207 40.3047 237.594 39.5547 238.83 39.5547C240.43 39.5547 241.537 40.8203 241.537 42.8359C241.537 44.8574 240.43 46.1348 238.842 46.1289C237.629 46.1348 237.207 45.3789 236.99 45.0273H236.908V48.3906H235.9ZM236.885 42.8125C236.891 44.2422 237.529 45.2266 238.701 45.2266C239.908 45.2266 240.529 44.166 240.529 42.8125C240.529 41.4824 239.926 40.457 238.701 40.457C237.512 40.457 236.891 41.4004 236.885 42.8125ZM250.525 36.5312V40.7734H252.213V41.5469H250.525V46.9492H249.611V36.5312H250.525ZM242.533 44.2422C245.223 42.9062 246.688 40.8965 246.898 38.4297H243.014V37.6562H247.83C247.824 40.6035 246.441 43.293 243.049 44.9688L242.533 44.2422ZM265.385 44.8281V45.5898H255.846V44.8281H260.111V42.2734H261.014V44.8281H265.385ZM256.221 41.6289C258.043 41.3184 260.07 39.7949 260.076 38.043V37.2461H261.037V38.043C261.043 39.7832 263.1 41.3184 264.916 41.6289L264.506 42.3906C262.918 42.0625 261.242 40.9902 260.568 39.4902C259.883 40.9844 258.225 42.0625 256.631 42.3906L256.221 41.6289ZM275.756 44.8398V45.6133H266.217V44.8398H270.506V42.2969H267.342V37.4102H274.572V42.2969H271.408V44.8398H275.756ZM268.244 41.5586H273.682V38.1484H268.244V41.5586ZM276.459 43.9141C277.127 43.9141 277.965 43.9082 278.838 43.8789V41.793H277.021V37.5977H281.451V38.3594H277.924V41.0312H281.545V41.793H279.729V43.8496C280.496 43.8145 281.258 43.7559 281.92 43.6797L281.967 44.3477C280.244 44.6406 278.012 44.6934 276.6 44.6875L276.459 43.9141ZM282.4 46.3984V36.7656H283.256V40.8789H284.557V36.5312H285.447V46.9492H284.557V41.6289H283.256V46.3984H282.4ZM296.498 44.8398V45.6133H286.959V44.8398H289.326V42.0332C288.436 41.5703 287.896 40.8203 287.896 39.8711C287.896 38.2598 289.479 37.1992 291.705 37.1875C293.932 37.1992 295.514 38.2598 295.514 39.8711C295.514 40.8027 294.992 41.541 294.131 42.0039V44.8398H296.498ZM288.787 39.8711C288.781 41.0371 289.994 41.8164 291.705 41.8164C293.398 41.8164 294.623 41.0371 294.623 39.8711C294.623 38.7051 293.398 37.9375 291.705 37.9492C289.994 37.9375 288.781 38.7051 288.787 39.8711ZM290.229 44.8398H293.205V42.3613C292.754 42.4785 292.25 42.543 291.705 42.543C291.172 42.543 290.674 42.4844 290.229 42.3672V44.8398Z" fill="white"/>
<path d="M81.6924 3.86572V15.731H79.5654V10.2114H78.1768V15.397H76.085V4.14697H78.1768V8.40088H79.5654V3.86572H81.6924ZM68.5791 6.90674V5.14893H74.6787V10.1235H70.7588V11.7671C72.5078 11.7495 73.8174 11.6616 75.3291 11.3716L75.5225 13.147C73.6504 13.481 72.0771 13.5337 69.7041 13.5337H68.5967V8.47119H72.5166V6.90674H68.5791ZM70.8467 19.563V14.606H73.0967V17.77H82.0967V19.563H70.8467ZM91.6416 4.74463V6.5376H86.5967V10.7739C89.1367 10.7651 90.6309 10.6772 92.3447 10.3345L92.5381 12.1274C90.6045 12.5229 88.8379 12.6108 85.6299 12.6196H84.3643V4.74463H91.6416ZM86.2275 19.6685V13.7446H96.9854V19.6685H86.2275ZM88.4775 17.8755H94.7881V15.5376H88.4775V17.8755ZM90.8682 9.3501V7.53955H94.7529V3.84814H96.9854V13.0942H94.7529V9.3501H90.8682ZM111.558 5.37744C111.54 10.3169 110.345 14.4214 104.368 17.4185L103.138 15.731C105.81 14.4038 107.4 12.9185 108.306 11.1431L103.577 11.5825L103.296 9.6665L108.982 9.32373C109.149 8.64697 109.264 7.92627 109.316 7.17041H104.14V5.37744H111.558ZM113.579 19.8091V3.84814H115.829V9.98291H118.097V11.8286H115.829V19.8091H113.579ZM131.808 11.2485V13.0415H120.487V5.18408H131.685V6.99463H122.702V11.2485H131.808ZM118.765 17.8931V16.0474H133.407V17.8931H118.765ZM148.946 11.02V12.6899H134.304V11.02H148.946ZM135.974 15.0278V13.481H147.188V17.2603H138.224V18.1743H147.663V19.7036H135.991V15.8364H144.974V15.0278H135.974ZM136.097 5.65869V4.12939H147.171V7.89111H138.364V8.75244H147.452V10.2642H136.132V6.46729H144.921V5.65869H136.097ZM157.349 4.11182V5.51807H158.737V4.11182H160.829V9.64893H161.831V4.11182H163.923V5.51807H165.312V4.11182H167.403V10.1235H162.429V11.3364H168.616V13.0942H154.026V11.3364H160.179V10.1235H155.204V4.11182H157.349ZM155.731 19.6685V13.9204H157.946V15.0278H164.608V13.9204H166.858V19.6685H155.731ZM157.349 8.36572H158.737V7.18799H157.349V8.36572ZM157.946 17.9106H164.608V16.7505H157.946V17.9106ZM163.923 8.36572H165.312V7.18799H163.923V8.36572ZM173.89 4.97314C176.333 4.97314 178.1 7.1792 178.108 10.6685C178.1 14.1841 176.333 16.3813 173.89 16.3813C171.438 16.3813 169.662 14.1841 169.671 10.6685C169.662 7.1792 171.438 4.97314 173.89 4.97314ZM171.833 10.6685C171.833 13.0503 172.668 14.3511 173.89 14.3423C175.138 14.3511 175.955 13.0503 175.964 10.6685C175.955 8.29541 175.138 6.99463 173.89 6.99463C172.668 6.99463 171.833 8.29541 171.833 10.6685ZM179.954 19.8442V3.84814H182.204V9.87744H184.56V11.7407H182.204V19.8442H179.954ZM202.56 5.23682V6.80127C202.551 8.75244 202.551 10.9409 201.962 14.1665L199.765 13.9731C200.283 11.0376 200.301 8.8667 200.31 7.01221H190.729V5.23682H202.56ZM189.288 17.8931V16.0649H192.399V11.0376H194.632V16.0649H196.39V11.0376H198.604V16.0649H203.878V17.8931H189.288ZM217.642 3.84814V9.104H219.681V10.9497H217.642V16.3286H215.392V3.84814H217.642ZM204.669 13.0415C205.82 13.0415 207.156 13.0327 208.554 12.9888V12.0659C206.813 11.8198 205.732 10.9585 205.741 9.70166C205.732 8.11963 207.288 7.19678 209.661 7.20557C212.017 7.19678 213.572 8.11963 213.581 9.70166C213.572 10.9497 212.5 11.811 210.786 12.0659V12.8833C212.096 12.8042 213.414 12.6812 214.653 12.4966L214.812 14.0435C211.445 14.6938 207.657 14.7378 204.897 14.7642L204.669 13.0415ZM205.091 6.74854V5.14893H208.554V3.79541H210.786V5.14893H214.249V6.74854H205.091ZM206.919 19.563V15.5024H209.169V17.77H218.187V19.563H206.919ZM207.886 9.70166C207.877 10.2993 208.519 10.6421 209.661 10.6333C210.786 10.6421 211.428 10.2993 211.437 9.70166C211.428 9.0249 210.786 8.69971 209.661 8.69971C208.519 8.69971 207.877 9.0249 207.886 9.70166ZM234.077 3.86572V15.9067H231.81V14.1313H228.681V12.3735H231.81V3.86572H234.077ZM220.296 9.9126C222.194 9.89502 224.532 9.87744 226.879 9.73682C227.081 8.36572 227.151 7.2583 227.187 6.41455H221.755V4.63916H229.437V5.23682C229.437 6.06299 229.437 7.53955 229.12 9.56104C229.639 9.51709 230.157 9.45557 230.667 9.38525L230.808 10.9673C229.489 11.2046 228.127 11.3628 226.782 11.4683V14.9048H224.761V17.77H234.446V19.563H222.511V14.6763H224.567V11.6001C223.135 11.6704 221.772 11.688 220.577 11.688L220.296 9.9126ZM243.253 4.07666C246.936 4.07666 249.062 5.04346 249.071 6.80127C249.062 8.58545 246.936 9.54346 243.253 9.54346C239.562 9.54346 237.417 8.58545 237.417 6.80127C237.417 5.04346 239.562 4.07666 243.253 4.07666ZM235.958 12.0747V10.2993H250.548V12.0747H235.958ZM237.646 14.6411V13.0063H248.772V17.0845H239.86V18.0513H249.194V19.7388H237.663V15.52H246.558V14.6411H237.646ZM239.772 6.80127C239.764 7.5835 240.906 7.89111 243.253 7.89111C245.617 7.89111 246.751 7.5835 246.751 6.80127C246.751 6.08936 245.617 5.71143 243.253 5.71143C240.906 5.71143 239.764 6.08936 239.772 6.80127ZM268.46 3.86572V8.43604H270.499V10.2817H268.46V14.729H266.21V3.86572H268.46ZM255.487 12.6724C256.656 12.6724 257.983 12.6724 259.372 12.6372V11.7407C257.632 11.4946 256.551 10.6421 256.56 9.42041C256.551 7.93506 258.106 7.021 260.479 7.02979C262.835 7.021 264.391 7.93506 264.399 9.42041C264.391 10.6421 263.318 11.4858 261.604 11.7319V12.5581C262.923 12.4878 264.241 12.3911 265.472 12.2329L265.63 13.7798C262.246 14.3774 258.537 14.4126 255.716 14.4126L255.487 12.6724ZM255.909 6.66064V5.02588H259.372V3.7251H261.604V5.02588H265.067V6.66064H255.909ZM257.526 17.1021V15.3794H268.46V19.8442H266.21V17.1021H257.526ZM258.704 9.42041C258.695 10.0005 259.337 10.3433 260.479 10.3345C261.604 10.3433 262.246 10.0005 262.255 9.42041C262.246 8.79639 261.604 8.52393 260.479 8.52393C259.337 8.52393 258.695 8.79639 258.704 9.42041ZM284.614 3.86572V15.3618H282.364V3.86572H284.614ZM271.466 8.91064C271.466 6.56396 273.382 4.87646 275.843 4.88525C278.295 4.87646 280.211 6.56396 280.22 8.91064C280.211 11.2925 278.295 12.9712 275.843 12.9712C273.382 12.9712 271.466 11.2925 271.466 8.91064ZM273.663 8.91064C273.646 10.2466 274.586 11.02 275.843 11.02C277.056 11.02 277.996 10.2466 278.005 8.91064C277.996 7.60986 277.056 6.82764 275.843 6.83643C274.586 6.82764 273.646 7.60986 273.663 8.91064ZM273.892 19.563V14.2017H276.159V17.77H285.036V19.563H273.892ZM294.493 6.2915V8.06689H286.759V6.2915H289.536V4.2876H291.751V6.2915H294.493ZM287.128 12.5845C287.128 10.3608 288.622 8.79639 290.661 8.7876C292.709 8.79639 294.168 10.3608 294.177 12.5845C294.168 14.8169 292.709 16.3989 290.661 16.3989C288.622 16.3989 287.128 14.8169 287.128 12.5845ZM289.097 12.5845C289.097 13.8062 289.729 14.5005 290.661 14.5005C291.558 14.5005 292.199 13.8062 292.208 12.5845C292.199 11.3804 291.558 10.6509 290.661 10.6509C289.729 10.6509 289.097 11.3804 289.097 12.5845ZM295.091 19.1587V4.16455H297.183V10.3521H298.483V3.84814H300.61V19.8442H298.483V12.145H297.183V19.1587H295.091ZM316.976 16.1528V17.981H302.333V16.1528H308.503V13.1997H303.88V4.86768H306.13V7.34619H313.108V4.86768H315.341V13.1997H310.735V16.1528H316.976ZM306.13 11.4067H313.108V9.13916H306.13V11.4067ZM323.022 7.87354C323.014 10.4663 323.734 13.1382 325.923 14.5356L324.71 16.2759C323.321 15.4409 322.451 14.0522 321.941 12.4175C321.37 14.228 320.412 15.7485 318.962 16.6274L317.591 14.9751C319.964 13.5073 320.843 10.686 320.843 7.979V5.21924H323.022V7.87354ZM324.235 11.0728V9.24463H326.31V4.07666H328.401V19.106H326.31V11.0728H324.235ZM329.614 19.8442V3.84814H331.759V19.8442H329.614ZM348.089 16.1353V17.981H333.446V16.1353H336.716V12.2153C335.477 11.4683 334.729 10.3345 334.729 8.92822C334.729 6.33545 337.261 4.63037 340.741 4.62158C344.204 4.63037 346.762 6.33545 346.771 8.92822C346.762 10.3081 346.041 11.4243 344.837 12.1714V16.1353H348.089ZM336.944 8.92822C336.944 10.4927 338.447 11.4595 340.741 11.4595C343 11.4595 344.547 10.4927 344.556 8.92822C344.547 7.31982 343 6.38818 340.741 6.39697C338.447 6.38818 336.944 7.31982 336.944 8.92822ZM338.931 16.1353H342.569V13.0239C341.998 13.1382 341.383 13.1997 340.741 13.1997C340.1 13.1997 339.493 13.1382 338.931 13.0327V16.1353Z" fill="white"/>
<rect y="1.21729" width="58" height="21.7827" rx="10.8914" fill="#ECF3FF"/>
<path d="M14.1465 10.9126C14.0371 10.3521 13.5723 9.98975 12.834 9.99658C12.0889 9.98975 11.542 10.3657 11.5488 10.8716C11.542 11.2544 11.8496 11.5415 12.6016 11.7192L13.8594 11.979C15.2607 12.2866 15.9443 12.936 15.9512 14.0024C15.9443 15.397 14.7207 16.3677 12.7793 16.3677C10.8926 16.3677 9.77832 15.52 9.59375 14.0981H11.3711C11.4736 14.7339 11.9658 15.0483 12.7793 15.0415C13.6201 15.0483 14.167 14.7065 14.1738 14.1528C14.167 13.7222 13.832 13.4487 13.0938 13.2915L11.9043 13.0317C10.5234 12.7515 9.80566 12.0269 9.8125 10.9673C9.80566 9.59326 10.9951 8.69775 12.8066 8.69775C14.5771 8.69775 15.6709 9.56592 15.8008 10.9126H14.1465ZM20.9824 8.79346V10.1333H19.5195V13.9888C19.5195 14.6997 19.875 14.8433 20.3125 14.8501C20.5176 14.8569 20.8594 14.8364 21.0781 14.8228V16.2446C20.873 16.2788 20.5381 16.3198 20.0938 16.313C18.7812 16.3198 17.7695 15.6704 17.7832 14.2759V10.1333H16.7168V8.79346H17.7832V7.01611H19.5195V8.79346H20.9824ZM25.5352 16.3677C23.2998 16.3677 21.9258 14.8774 21.9258 12.5532C21.9258 10.2563 23.3203 8.69775 25.4395 8.69775C27.2578 8.69775 28.8301 9.83936 28.8301 12.4438V12.9907H23.6484C23.6758 14.2554 24.4209 15.0073 25.5488 15.0005C26.3145 15.0073 26.8271 14.6792 27.0527 14.2349H28.7617C28.4473 15.52 27.2578 16.3677 25.5352 16.3677ZM23.6553 11.8013H27.1621C27.1553 10.7896 26.4717 10.0513 25.4668 10.0513C24.4209 10.0513 23.7168 10.8579 23.6553 11.8013ZM30.1836 19.0063V8.79346H31.8926V10.0103H32.002C32.2686 9.48389 32.8154 8.69775 34.1348 8.69775C35.8438 8.69775 37.1904 10.0376 37.1973 12.5122C37.1904 14.9526 35.8848 16.3472 34.1348 16.354C32.8564 16.3472 32.2754 15.5884 32.002 15.0415H31.9336V19.0063H30.1836ZM31.8926 12.4985C31.8994 13.9478 32.5283 14.9185 33.6562 14.9185C34.8115 14.9185 35.4199 13.8999 35.4199 12.4985C35.4199 11.1177 34.8252 10.1265 33.6562 10.1196C32.5146 10.1265 31.8994 11.0562 31.8926 12.4985ZM45.4688 16.354C43.3564 16.354 41.8457 15.2056 41.8047 13.5376H43.5957C43.6436 14.3306 44.4365 14.8569 45.4688 14.8501C46.5557 14.8569 47.3418 14.2554 47.3418 13.3735C47.3418 12.4849 46.5762 11.8491 45.291 11.8423H44.4023V10.4751H45.291C46.3438 10.4751 47.0752 9.88721 47.0684 9.02588C47.0752 8.19189 46.4463 7.63135 45.4824 7.63135C44.5527 7.63135 43.7529 8.15088 43.7188 8.98486H42.0098C42.0508 7.32373 43.5615 6.18213 45.4961 6.18213C47.5059 6.18213 48.8047 7.4126 48.791 8.93018C48.8047 10.0376 48.0664 10.8374 46.9863 11.063V11.145C48.3809 11.3296 49.1738 12.2251 49.1602 13.4692C49.1738 15.144 47.6084 16.354 45.4688 16.354Z" fill="#4E60FF"/>
</svg>
