<svg width="288" height="98" viewBox="0 0 288 98" fill="none" xmlns="http://www.w3.org/2000/svg">
<g filter="url(#filter0_d_654_11789)">
<mask id="path-1-outside-1_654_11789" maskUnits="userSpaceOnUse" x="17" y="36" width="254" height="43" fill="black">
<rect fill="white" x="17" y="36" width="254" height="43"/>
<path d="M56.7945 75.04H19.9945V68.88H34.5145V62.88H42.2745V68.88H56.7945V75.04ZM55.3145 46H21.4745V39.8H55.3145V46ZM55.7945 61.44H20.9945V55.56H26.8745V47.84H34.6345V55.56H42.1545V47.84H49.9145V55.56H55.7945V61.44ZM88.3945 38.72H95.9945V66.84H88.3945V38.72ZM62.7945 62.48H70.5145V70.12H96.7545V76.04H62.7945V62.48ZM60.7145 48.16C60.7145 45.28 61.7545 43.0533 63.8345 41.48C65.9412 39.9067 68.6879 39.12 72.0745 39.12C75.4879 39.12 78.2345 39.9067 80.3145 41.48C82.4212 43.0267 83.4745 45.2533 83.4745 48.16V51.64C83.4745 54.52 82.4212 56.7467 80.3145 58.32C78.2345 59.8933 75.5012 60.68 72.1145 60.68C68.7279 60.68 65.9812 59.8933 63.8745 58.32C61.7679 56.7467 60.7145 54.52 60.7145 51.64V48.16ZM68.1145 51.72C68.1145 52.7333 68.4745 53.56 69.1945 54.2C69.9145 54.8133 70.8745 55.12 72.0745 55.12C73.2745 55.12 74.2345 54.8133 74.9545 54.2C75.7012 53.56 76.0745 52.7333 76.0745 51.72V48.08C76.0745 47.0933 75.7145 46.28 74.9945 45.64C74.2745 45 73.3279 44.68 72.1545 44.68C70.9279 44.68 69.9412 45 69.1945 45.64C68.4745 46.2533 68.1145 47.0667 68.1145 48.08V51.72ZM136.795 75.04H99.9945V68.68H136.795V75.04ZM134.755 45.48H109.195V48.68H134.515V54.28H109.195V57.48H135.395V63.24H101.475V39.68H134.755V45.48ZM188.005 75.04H151.205V69.08H157.125V54.88H164.085V69.08H167.725V54.88H174.685V69.08H188.005V75.04ZM176.605 64.28C177.405 61.8267 177.979 59.4533 178.325 57.16C178.672 54.8667 178.845 52.3867 178.845 49.72V46.16H152.925V39.68H186.325V49.72C186.325 52.7067 186.179 55.2667 185.885 57.4C185.592 59.5067 185.072 61.8 184.325 64.28H176.605ZM218.805 38.72H226.205V48.68H229.805V55.24H226.205V66.84H218.805V38.72ZM191.205 63.04V57.48H199.845V55.16C197.472 55.1333 195.645 54.48 194.365 53.2C193.085 51.8933 192.445 50.2533 192.445 48.28C192.445 47.5067 192.605 46.7867 192.925 46.12H191.205V40.96H199.845V38.4H207.445V40.96H216.045V46.12H214.325C214.645 46.7867 214.805 47.5067 214.805 48.28C214.805 50.28 214.152 51.9333 212.845 53.24C211.565 54.52 209.712 55.16 207.285 55.16H207.005V57.48H208.565C211.979 57.48 214.739 57.32 216.845 57V62.56C214.739 62.88 211.979 63.04 208.565 63.04H191.205ZM194.005 65.08H201.725V70.44H227.165V76.04H194.005V65.08ZM201.725 45.8C200.979 45.8 200.379 46.0133 199.925 46.44C199.472 46.84 199.245 47.3867 199.245 48.08C199.245 48.8 199.472 49.3733 199.925 49.8C200.379 50.2 200.979 50.4 201.725 50.4H205.525C206.272 50.4 206.872 50.2 207.325 49.8C207.779 49.3733 208.005 48.8 208.005 48.08C208.005 47.3867 207.779 46.84 207.325 46.44C206.872 46.0133 206.272 45.8 205.525 45.8H201.725ZM253.445 39.28C253.392 42.1333 253.019 44.6933 252.325 46.96C254.779 47.04 257.112 47.64 259.325 48.76C261.565 49.88 263.419 51.5333 264.885 53.72C266.379 55.88 267.259 58.5067 267.525 61.6H259.805C259.485 59.9467 258.819 58.48 257.805 57.2C256.819 55.92 255.592 54.9333 254.125 54.24C252.659 53.52 251.059 53.16 249.325 53.16C247.459 55.7467 245.059 57.8 242.125 59.32C239.192 60.8133 235.859 61.7067 232.125 62V55.4C236.392 54.6 239.672 52.8667 241.965 50.2C244.285 47.5067 245.485 43.8667 245.565 39.28H253.445ZM268.005 75.04H231.205V68.88H245.725V60.48H253.485V68.88H268.005V75.04Z"/>
</mask>
<path d="M56.7945 75.04H19.9945V68.88H34.5145V62.88H42.2745V68.88H56.7945V75.04ZM55.3145 46H21.4745V39.8H55.3145V46ZM55.7945 61.44H20.9945V55.56H26.8745V47.84H34.6345V55.56H42.1545V47.84H49.9145V55.56H55.7945V61.44ZM88.3945 38.72H95.9945V66.84H88.3945V38.72ZM62.7945 62.48H70.5145V70.12H96.7545V76.04H62.7945V62.48ZM60.7145 48.16C60.7145 45.28 61.7545 43.0533 63.8345 41.48C65.9412 39.9067 68.6879 39.12 72.0745 39.12C75.4879 39.12 78.2345 39.9067 80.3145 41.48C82.4212 43.0267 83.4745 45.2533 83.4745 48.16V51.64C83.4745 54.52 82.4212 56.7467 80.3145 58.32C78.2345 59.8933 75.5012 60.68 72.1145 60.68C68.7279 60.68 65.9812 59.8933 63.8745 58.32C61.7679 56.7467 60.7145 54.52 60.7145 51.64V48.16ZM68.1145 51.72C68.1145 52.7333 68.4745 53.56 69.1945 54.2C69.9145 54.8133 70.8745 55.12 72.0745 55.12C73.2745 55.12 74.2345 54.8133 74.9545 54.2C75.7012 53.56 76.0745 52.7333 76.0745 51.72V48.08C76.0745 47.0933 75.7145 46.28 74.9945 45.64C74.2745 45 73.3279 44.68 72.1545 44.68C70.9279 44.68 69.9412 45 69.1945 45.64C68.4745 46.2533 68.1145 47.0667 68.1145 48.08V51.72ZM136.795 75.04H99.9945V68.68H136.795V75.04ZM134.755 45.48H109.195V48.68H134.515V54.28H109.195V57.48H135.395V63.24H101.475V39.68H134.755V45.48ZM188.005 75.04H151.205V69.08H157.125V54.88H164.085V69.08H167.725V54.88H174.685V69.08H188.005V75.04ZM176.605 64.28C177.405 61.8267 177.979 59.4533 178.325 57.16C178.672 54.8667 178.845 52.3867 178.845 49.72V46.16H152.925V39.68H186.325V49.72C186.325 52.7067 186.179 55.2667 185.885 57.4C185.592 59.5067 185.072 61.8 184.325 64.28H176.605ZM218.805 38.72H226.205V48.68H229.805V55.24H226.205V66.84H218.805V38.72ZM191.205 63.04V57.48H199.845V55.16C197.472 55.1333 195.645 54.48 194.365 53.2C193.085 51.8933 192.445 50.2533 192.445 48.28C192.445 47.5067 192.605 46.7867 192.925 46.12H191.205V40.96H199.845V38.4H207.445V40.96H216.045V46.12H214.325C214.645 46.7867 214.805 47.5067 214.805 48.28C214.805 50.28 214.152 51.9333 212.845 53.24C211.565 54.52 209.712 55.16 207.285 55.16H207.005V57.48H208.565C211.979 57.48 214.739 57.32 216.845 57V62.56C214.739 62.88 211.979 63.04 208.565 63.04H191.205ZM194.005 65.08H201.725V70.44H227.165V76.04H194.005V65.08ZM201.725 45.8C200.979 45.8 200.379 46.0133 199.925 46.44C199.472 46.84 199.245 47.3867 199.245 48.08C199.245 48.8 199.472 49.3733 199.925 49.8C200.379 50.2 200.979 50.4 201.725 50.4H205.525C206.272 50.4 206.872 50.2 207.325 49.8C207.779 49.3733 208.005 48.8 208.005 48.08C208.005 47.3867 207.779 46.84 207.325 46.44C206.872 46.0133 206.272 45.8 205.525 45.8H201.725ZM253.445 39.28C253.392 42.1333 253.019 44.6933 252.325 46.96C254.779 47.04 257.112 47.64 259.325 48.76C261.565 49.88 263.419 51.5333 264.885 53.72C266.379 55.88 267.259 58.5067 267.525 61.6H259.805C259.485 59.9467 258.819 58.48 257.805 57.2C256.819 55.92 255.592 54.9333 254.125 54.24C252.659 53.52 251.059 53.16 249.325 53.16C247.459 55.7467 245.059 57.8 242.125 59.32C239.192 60.8133 235.859 61.7067 232.125 62V55.4C236.392 54.6 239.672 52.8667 241.965 50.2C244.285 47.5067 245.485 43.8667 245.565 39.28H253.445ZM268.005 75.04H231.205V68.88H245.725V60.48H253.485V68.88H268.005V75.04Z" fill="url(#paint0_angular_654_11789)"/>
<path d="M56.7945 75.04V77.04C57.8991 77.04 58.7945 76.1446 58.7945 75.04H56.7945ZM19.9945 75.04H17.9945C17.9945 76.1446 18.89 77.04 19.9945 77.04V75.04ZM19.9945 68.88V66.88C18.89 66.88 17.9945 67.7754 17.9945 68.88H19.9945ZM34.5145 68.88V70.88C35.6191 70.88 36.5145 69.9846 36.5145 68.88H34.5145ZM34.5145 62.88V60.88C33.41 60.88 32.5145 61.7754 32.5145 62.88H34.5145ZM42.2745 62.88H44.2745C44.2745 61.7754 43.3791 60.88 42.2745 60.88V62.88ZM42.2745 68.88H40.2745C40.2745 69.9846 41.17 70.88 42.2745 70.88V68.88ZM56.7945 68.88H58.7945C58.7945 67.7754 57.8991 66.88 56.7945 66.88V68.88ZM55.3145 46V48C56.4191 48 57.3145 47.1046 57.3145 46H55.3145ZM21.4745 46H19.4745C19.4745 47.1046 20.37 48 21.4745 48V46ZM21.4745 39.8V37.8C20.37 37.8 19.4745 38.6954 19.4745 39.8H21.4745ZM55.3145 39.8H57.3145C57.3145 38.6954 56.4191 37.8 55.3145 37.8V39.8ZM55.7945 61.44V63.44C56.8991 63.44 57.7945 62.5446 57.7945 61.44H55.7945ZM20.9945 61.44H18.9945C18.9945 62.5446 19.89 63.44 20.9945 63.44V61.44ZM20.9945 55.56V53.56C19.89 53.56 18.9945 54.4554 18.9945 55.56H20.9945ZM26.8745 55.56V57.56C27.9791 57.56 28.8745 56.6646 28.8745 55.56H26.8745ZM26.8745 47.84V45.84C25.77 45.84 24.8745 46.7354 24.8745 47.84H26.8745ZM34.6345 47.84H36.6345C36.6345 46.7354 35.7391 45.84 34.6345 45.84V47.84ZM34.6345 55.56H32.6345C32.6345 56.6646 33.53 57.56 34.6345 57.56V55.56ZM42.1545 55.56V57.56C43.2591 57.56 44.1545 56.6646 44.1545 55.56H42.1545ZM42.1545 47.84V45.84C41.05 45.84 40.1545 46.7354 40.1545 47.84H42.1545ZM49.9145 47.84H51.9145C51.9145 46.7354 51.0191 45.84 49.9145 45.84V47.84ZM49.9145 55.56H47.9145C47.9145 56.6646 48.81 57.56 49.9145 57.56V55.56ZM55.7945 55.56H57.7945C57.7945 54.4554 56.8991 53.56 55.7945 53.56V55.56ZM56.7945 73.04H19.9945V77.04H56.7945V73.04ZM21.9945 75.04V68.88H17.9945V75.04H21.9945ZM19.9945 70.88H34.5145V66.88H19.9945V70.88ZM36.5145 68.88V62.88H32.5145V68.88H36.5145ZM34.5145 64.88H42.2745V60.88H34.5145V64.88ZM40.2745 62.88V68.88H44.2745V62.88H40.2745ZM42.2745 70.88H56.7945V66.88H42.2745V70.88ZM54.7945 68.88V75.04H58.7945V68.88H54.7945ZM55.3145 44H21.4745V48H55.3145V44ZM23.4745 46V39.8H19.4745V46H23.4745ZM21.4745 41.8H55.3145V37.8H21.4745V41.8ZM53.3145 39.8V46H57.3145V39.8H53.3145ZM55.7945 59.44H20.9945V63.44H55.7945V59.44ZM22.9945 61.44V55.56H18.9945V61.44H22.9945ZM20.9945 57.56H26.8745V53.56H20.9945V57.56ZM28.8745 55.56V47.84H24.8745V55.56H28.8745ZM26.8745 49.84H34.6345V45.84H26.8745V49.84ZM32.6345 47.84V55.56H36.6345V47.84H32.6345ZM34.6345 57.56H42.1545V53.56H34.6345V57.56ZM44.1545 55.56V47.84H40.1545V55.56H44.1545ZM42.1545 49.84H49.9145V45.84H42.1545V49.84ZM47.9145 47.84V55.56H51.9145V47.84H47.9145ZM49.9145 57.56H55.7945V53.56H49.9145V57.56ZM53.7945 55.56V61.44H57.7945V55.56H53.7945ZM88.3945 38.72V36.72C87.29 36.72 86.3945 37.6154 86.3945 38.72H88.3945ZM95.9945 38.72H97.9945C97.9945 37.6154 97.0991 36.72 95.9945 36.72V38.72ZM95.9945 66.84V68.84C97.0991 68.84 97.9945 67.9446 97.9945 66.84H95.9945ZM88.3945 66.84H86.3945C86.3945 67.9446 87.29 68.84 88.3945 68.84V66.84ZM62.7945 62.48V60.48C61.69 60.48 60.7945 61.3754 60.7945 62.48H62.7945ZM70.5145 62.48H72.5145C72.5145 61.3754 71.6191 60.48 70.5145 60.48V62.48ZM70.5145 70.12H68.5145C68.5145 71.2246 69.41 72.12 70.5145 72.12V70.12ZM96.7545 70.12H98.7545C98.7545 69.0154 97.8591 68.12 96.7545 68.12V70.12ZM96.7545 76.04V78.04C97.8591 78.04 98.7545 77.1446 98.7545 76.04H96.7545ZM62.7945 76.04H60.7945C60.7945 77.1446 61.69 78.04 62.7945 78.04V76.04ZM63.8345 41.48L62.6378 39.8775L62.628 39.8849L63.8345 41.48ZM80.3145 41.48L79.108 43.0751C79.1156 43.0808 79.1232 43.0865 79.1309 43.0922L80.3145 41.48ZM80.3145 58.32L79.1178 56.7175L79.108 56.7249L80.3145 58.32ZM63.8745 58.32L62.6778 59.9224L63.8745 58.32ZM69.1945 54.2L67.8658 55.6948C67.8763 55.7042 67.8869 55.7134 67.8976 55.7225L69.1945 54.2ZM74.9545 54.2L76.2515 55.7225L76.2561 55.7185L74.9545 54.2ZM69.1945 45.64L70.4915 47.1625L70.4961 47.1585L69.1945 45.64ZM88.3945 40.72H95.9945V36.72H88.3945V40.72ZM93.9945 38.72V66.84H97.9945V38.72H93.9945ZM95.9945 64.84H88.3945V68.84H95.9945V64.84ZM90.3945 66.84V38.72H86.3945V66.84H90.3945ZM62.7945 64.48H70.5145V60.48H62.7945V64.48ZM68.5145 62.48V70.12H72.5145V62.48H68.5145ZM70.5145 72.12H96.7545V68.12H70.5145V72.12ZM94.7545 70.12V76.04H98.7545V70.12H94.7545ZM96.7545 74.04H62.7945V78.04H96.7545V74.04ZM64.7945 76.04V62.48H60.7945V76.04H64.7945ZM62.7145 48.16C62.7145 45.8314 63.5179 44.2272 65.0411 43.0751L62.628 39.8849C59.9911 41.8795 58.7145 44.7286 58.7145 48.16H62.7145ZM65.0313 43.0824C66.7042 41.833 68.9944 41.12 72.0745 41.12V37.12C68.3813 37.12 65.1782 37.9803 62.6378 39.8776L65.0313 43.0824ZM72.0745 41.12C75.1869 41.12 77.4692 41.8355 79.108 43.0751L81.5211 39.8849C78.9998 37.9778 75.7888 37.12 72.0745 37.12V41.12ZM79.1309 43.0922C80.6613 44.2157 81.4745 45.8075 81.4745 48.16H85.4745C85.4745 44.6991 84.1811 41.8376 81.4981 39.8678L79.1309 43.0922ZM81.4745 48.16V51.64H85.4745V48.16H81.4745ZM81.4745 51.64C81.4745 53.9586 80.6657 55.5615 79.1178 56.7176L81.5113 59.9224C84.1767 57.9318 85.4745 55.0814 85.4745 51.64H81.4745ZM79.108 56.7249C77.4667 57.9664 75.1961 58.68 72.1145 58.68V62.68C75.8063 62.68 79.0023 61.8203 81.5211 59.9151L79.108 56.7249ZM72.1145 58.68C69.0344 58.68 66.7442 57.967 65.0713 56.7176L62.6778 59.9224C65.2182 61.8197 68.4213 62.68 72.1145 62.68V58.68ZM65.0713 56.7176C63.5234 55.5615 62.7145 53.9586 62.7145 51.64H58.7145C58.7145 55.0814 60.0123 57.9318 62.6778 59.9224L65.0713 56.7176ZM62.7145 51.64V48.16H58.7145V51.64H62.7145ZM66.1145 51.72C66.1145 53.271 66.6943 54.6535 67.8658 55.6948L70.5233 52.7052C70.2547 52.4665 70.1145 52.1957 70.1145 51.72H66.1145ZM67.8976 55.7225C69.0681 56.7196 70.5304 57.12 72.0745 57.12V53.12C71.2187 53.12 70.761 52.9071 70.4915 52.6775L67.8976 55.7225ZM72.0745 57.12C73.6187 57.12 75.081 56.7196 76.2515 55.7225L73.6576 52.6775C73.3881 52.9071 72.9304 53.12 72.0745 53.12V57.12ZM76.2561 55.7185C77.4613 54.6855 78.0745 53.2968 78.0745 51.72H74.0745C74.0745 52.1699 73.9411 52.4345 73.653 52.6815L76.2561 55.7185ZM78.0745 51.72V48.08H74.0745V51.72H78.0745ZM78.0745 48.08C78.0745 46.5379 77.4819 45.1751 76.3233 44.1452L73.6658 47.1348C73.9472 47.3849 74.0745 47.6488 74.0745 48.08H78.0745ZM76.3233 44.1452C75.1614 43.1125 73.7059 42.68 72.1545 42.68V46.68C72.9498 46.68 73.3876 46.8875 73.6658 47.1348L76.3233 44.1452ZM72.1545 42.68C70.5725 42.68 69.0851 43.0996 67.8929 44.1215L70.4961 47.1585C70.7973 46.9004 71.2833 46.68 72.1545 46.68V42.68ZM67.8976 44.1175C66.6966 45.1406 66.1145 46.5282 66.1145 48.08H70.1145C70.1145 47.6051 70.2525 47.366 70.4915 47.1625L67.8976 44.1175ZM66.1145 48.08V51.72H70.1145V48.08H66.1145ZM136.795 75.04V77.04C137.899 77.04 138.795 76.1446 138.795 75.04H136.795ZM99.9945 75.04H97.9945C97.9945 76.1446 98.89 77.04 99.9945 77.04V75.04ZM99.9945 68.68V66.68C98.89 66.68 97.9945 67.5754 97.9945 68.68H99.9945ZM136.795 68.68H138.795C138.795 67.5754 137.899 66.68 136.795 66.68V68.68ZM134.755 45.48V47.48C135.859 47.48 136.755 46.5846 136.755 45.48H134.755ZM109.195 45.48V43.48C108.09 43.48 107.195 44.3754 107.195 45.48H109.195ZM109.195 48.68H107.195C107.195 49.7846 108.09 50.68 109.195 50.68V48.68ZM134.515 48.68H136.515C136.515 47.5754 135.619 46.68 134.515 46.68V48.68ZM134.515 54.28V56.28C135.619 56.28 136.515 55.3846 136.515 54.28H134.515ZM109.195 54.28V52.28C108.09 52.28 107.195 53.1754 107.195 54.28H109.195ZM109.195 57.48H107.195C107.195 58.5846 108.09 59.48 109.195 59.48V57.48ZM135.395 57.48H137.395C137.395 56.3754 136.499 55.48 135.395 55.48V57.48ZM135.395 63.24V65.24C136.499 65.24 137.395 64.3446 137.395 63.24H135.395ZM101.475 63.24H99.4745C99.4745 64.3446 100.37 65.24 101.475 65.24V63.24ZM101.475 39.68V37.68C100.37 37.68 99.4745 38.5754 99.4745 39.68H101.475ZM134.755 39.68H136.755C136.755 38.5754 135.859 37.68 134.755 37.68V39.68ZM136.795 73.04H99.9945V77.04H136.795V73.04ZM101.995 75.04V68.68H97.9945V75.04H101.995ZM99.9945 70.68H136.795V66.68H99.9945V70.68ZM134.795 68.68V75.04H138.795V68.68H134.795ZM134.755 43.48H109.195V47.48H134.755V43.48ZM107.195 45.48V48.68H111.195V45.48H107.195ZM109.195 50.68H134.515V46.68H109.195V50.68ZM132.515 48.68V54.28H136.515V48.68H132.515ZM134.515 52.28H109.195V56.28H134.515V52.28ZM107.195 54.28V57.48H111.195V54.28H107.195ZM109.195 59.48H135.395V55.48H109.195V59.48ZM133.395 57.48V63.24H137.395V57.48H133.395ZM135.395 61.24H101.475V65.24H135.395V61.24ZM103.475 63.24V39.68H99.4745V63.24H103.475ZM101.475 41.68H134.755V37.68H101.475V41.68ZM132.755 39.68V45.48H136.755V39.68H132.755ZM188.005 75.04V77.04C189.11 77.04 190.005 76.1446 190.005 75.04H188.005ZM151.205 75.04H149.205C149.205 76.1446 150.101 77.04 151.205 77.04V75.04ZM151.205 69.08V67.08C150.101 67.08 149.205 67.9754 149.205 69.08H151.205ZM157.125 69.08V71.08C158.23 71.08 159.125 70.1846 159.125 69.08H157.125ZM157.125 54.88V52.88C156.021 52.88 155.125 53.7754 155.125 54.88H157.125ZM164.085 54.88H166.085C166.085 53.7754 165.19 52.88 164.085 52.88V54.88ZM164.085 69.08H162.085C162.085 70.1846 162.981 71.08 164.085 71.08V69.08ZM167.725 69.08V71.08C168.83 71.08 169.725 70.1846 169.725 69.08H167.725ZM167.725 54.88V52.88C166.621 52.88 165.725 53.7754 165.725 54.88H167.725ZM174.685 54.88H176.685C176.685 53.7754 175.79 52.88 174.685 52.88V54.88ZM174.685 69.08H172.685C172.685 70.1846 173.581 71.08 174.685 71.08V69.08ZM188.005 69.08H190.005C190.005 67.9754 189.11 67.08 188.005 67.08V69.08ZM176.605 64.28L174.704 63.66C174.505 64.269 174.611 64.9363 174.987 65.4547C175.363 65.9732 175.965 66.28 176.605 66.28V64.28ZM178.325 57.16L180.303 57.4589V57.4589L178.325 57.16ZM178.845 46.16H180.845C180.845 45.0554 179.95 44.16 178.845 44.16V46.16ZM152.925 46.16H150.925C150.925 47.2646 151.821 48.16 152.925 48.16V46.16ZM152.925 39.68V37.68C151.821 37.68 150.925 38.5754 150.925 39.68H152.925ZM186.325 39.68H188.325C188.325 38.5754 187.43 37.68 186.325 37.68V39.68ZM185.885 57.4L187.866 57.6758L187.867 57.6724L185.885 57.4ZM184.325 64.28V66.28C185.208 66.28 185.986 65.7016 186.241 64.8566L184.325 64.28ZM188.005 73.04H151.205V77.04H188.005V73.04ZM153.205 75.04V69.08H149.205V75.04H153.205ZM151.205 71.08H157.125V67.08H151.205V71.08ZM159.125 69.08V54.88H155.125V69.08H159.125ZM157.125 56.88H164.085V52.88H157.125V56.88ZM162.085 54.88V69.08H166.085V54.88H162.085ZM164.085 71.08H167.725V67.08H164.085V71.08ZM169.725 69.08V54.88H165.725V69.08H169.725ZM167.725 56.88H174.685V52.88H167.725V56.88ZM172.685 54.88V69.08H176.685V54.88H172.685ZM174.685 71.08H188.005V67.08H174.685V71.08ZM186.005 69.08V75.04H190.005V69.08H186.005ZM178.507 64.9C179.337 62.3535 179.938 59.8726 180.303 57.4589L176.348 56.8611C176.019 59.0341 175.474 61.2999 174.704 63.66L178.507 64.9ZM180.303 57.4589C180.667 55.0533 180.845 52.4722 180.845 49.72H176.845C176.845 52.3011 176.678 54.68 176.348 56.8611L180.303 57.4589ZM180.845 49.72V46.16H176.845V49.72H180.845ZM178.845 44.16H152.925V48.16H178.845V44.16ZM154.925 46.16V39.68H150.925V46.16H154.925ZM152.925 41.68H186.325V37.68H152.925V41.68ZM184.325 39.68V49.72H188.325V39.68H184.325ZM184.325 49.72C184.325 52.6476 184.181 55.1115 183.904 57.1276L187.867 57.6724C188.176 55.4218 188.325 52.7657 188.325 49.72H184.325ZM183.905 57.1242C183.628 59.11 183.134 61.3015 182.41 63.7034L186.241 64.8566C187.011 62.2985 187.556 59.9034 187.866 57.6758L183.905 57.1242ZM184.325 62.28H176.605V66.28H184.325V62.28ZM218.805 38.72V36.72C217.701 36.72 216.805 37.6154 216.805 38.72H218.805ZM226.205 38.72H228.205C228.205 37.6154 227.31 36.72 226.205 36.72V38.72ZM226.205 48.68H224.205C224.205 49.7846 225.101 50.68 226.205 50.68V48.68ZM229.805 48.68H231.805C231.805 47.5754 230.91 46.68 229.805 46.68V48.68ZM229.805 55.24V57.24C230.91 57.24 231.805 56.3446 231.805 55.24H229.805ZM226.205 55.24V53.24C225.101 53.24 224.205 54.1354 224.205 55.24H226.205ZM226.205 66.84V68.84C227.31 68.84 228.205 67.9446 228.205 66.84H226.205ZM218.805 66.84H216.805C216.805 67.9446 217.701 68.84 218.805 68.84V66.84ZM191.205 63.04H189.205C189.205 64.1446 190.101 65.04 191.205 65.04V63.04ZM191.205 57.48V55.48C190.101 55.48 189.205 56.3754 189.205 57.48H191.205ZM199.845 57.48V59.48C200.95 59.48 201.845 58.5846 201.845 57.48H199.845ZM199.845 55.16H201.845C201.845 54.0642 200.964 53.1724 199.868 53.1601L199.845 55.16ZM194.365 53.2L192.937 54.5996C192.942 54.6045 192.946 54.6094 192.951 54.6142L194.365 53.2ZM192.925 46.12L194.729 46.9855C195.026 46.3657 194.984 45.6367 194.618 45.0549C194.252 44.473 193.613 44.12 192.925 44.12V46.12ZM191.205 46.12H189.205C189.205 47.2246 190.101 48.12 191.205 48.12V46.12ZM191.205 40.96V38.96C190.101 38.96 189.205 39.8554 189.205 40.96H191.205ZM199.845 40.96V42.96C200.95 42.96 201.845 42.0646 201.845 40.96H199.845ZM199.845 38.4V36.4C198.741 36.4 197.845 37.2954 197.845 38.4H199.845ZM207.445 38.4H209.445C209.445 37.2954 208.55 36.4 207.445 36.4V38.4ZM207.445 40.96H205.445C205.445 42.0646 206.341 42.96 207.445 42.96V40.96ZM216.045 40.96H218.045C218.045 39.8554 217.15 38.96 216.045 38.96V40.96ZM216.045 46.12V48.12C217.15 48.12 218.045 47.2246 218.045 46.12H216.045ZM214.325 46.12V44.12C213.638 44.12 212.999 44.473 212.633 45.0549C212.267 45.6367 212.225 46.3657 212.522 46.9855L214.325 46.12ZM212.845 53.24L211.431 51.8258L212.845 53.24ZM207.005 55.16V53.16C205.901 53.16 205.005 54.0554 205.005 55.16H207.005ZM207.005 57.48H205.005C205.005 58.5846 205.901 59.48 207.005 59.48V57.48ZM216.845 57H218.845C218.845 56.4171 218.591 55.8633 218.149 55.4833C217.707 55.1034 217.121 54.9351 216.545 55.0227L216.845 57ZM216.845 62.56L217.146 64.5373C218.123 64.3889 218.845 63.5486 218.845 62.56H216.845ZM194.005 65.08V63.08C192.901 63.08 192.005 63.9754 192.005 65.08H194.005ZM201.725 65.08H203.725C203.725 63.9754 202.83 63.08 201.725 63.08V65.08ZM201.725 70.44H199.725C199.725 71.5446 200.621 72.44 201.725 72.44V70.44ZM227.165 70.44H229.165C229.165 69.3354 228.27 68.44 227.165 68.44V70.44ZM227.165 76.04V78.04C228.27 78.04 229.165 77.1446 229.165 76.04H227.165ZM194.005 76.04H192.005C192.005 77.1446 192.901 78.04 194.005 78.04V76.04ZM199.925 46.44L201.249 47.9397C201.265 47.9255 201.281 47.9111 201.296 47.8964L199.925 46.44ZM199.925 49.8L198.555 51.2564C198.57 51.2711 198.586 51.2855 198.602 51.2997L199.925 49.8ZM207.325 49.8L208.649 51.2997C208.665 51.2855 208.681 51.2711 208.696 51.2564L207.325 49.8ZM207.325 46.44L205.955 47.8964C205.97 47.9111 205.986 47.9255 206.002 47.9397L207.325 46.44ZM218.805 40.72H226.205V36.72H218.805V40.72ZM224.205 38.72V48.68H228.205V38.72H224.205ZM226.205 50.68H229.805V46.68H226.205V50.68ZM227.805 48.68V55.24H231.805V48.68H227.805ZM229.805 53.24H226.205V57.24H229.805V53.24ZM224.205 55.24V66.84H228.205V55.24H224.205ZM226.205 64.84H218.805V68.84H226.205V64.84ZM220.805 66.84V38.72H216.805V66.84H220.805ZM193.205 63.04V57.48H189.205V63.04H193.205ZM191.205 59.48H199.845V55.48H191.205V59.48ZM201.845 57.48V55.16H197.845V57.48H201.845ZM199.868 53.1601C197.849 53.1374 196.586 52.5921 195.78 51.7858L192.951 54.6142C194.705 56.3679 197.095 57.1292 199.823 57.1599L199.868 53.1601ZM195.794 51.8004C194.911 50.8988 194.445 49.7755 194.445 48.28H190.445C190.445 50.7312 191.26 52.8878 192.937 54.5996L195.794 51.8004ZM194.445 48.28C194.445 47.7922 194.544 47.3696 194.729 46.9855L191.122 45.2545C190.667 46.2037 190.445 47.2211 190.445 48.28H194.445ZM192.925 44.12H191.205V48.12H192.925V44.12ZM193.205 46.12V40.96H189.205V46.12H193.205ZM191.205 42.96H199.845V38.96H191.205V42.96ZM201.845 40.96V38.4H197.845V40.96H201.845ZM199.845 40.4H207.445V36.4H199.845V40.4ZM205.445 38.4V40.96H209.445V38.4H205.445ZM207.445 42.96H216.045V38.96H207.445V42.96ZM214.045 40.96V46.12H218.045V40.96H214.045ZM216.045 44.12H214.325V48.12H216.045V44.12ZM212.522 46.9855C212.707 47.3696 212.805 47.7922 212.805 48.28H216.805C216.805 47.2211 216.584 46.2037 216.129 45.2545L212.522 46.9855ZM212.805 48.28C212.805 49.7977 212.33 50.9269 211.431 51.8258L214.26 54.6542C215.974 52.9397 216.805 50.7622 216.805 48.28H212.805ZM211.431 51.8258C210.64 52.6169 209.368 53.16 207.285 53.16V57.16C210.056 57.16 212.491 56.4231 214.26 54.6542L211.431 51.8258ZM207.285 53.16H207.005V57.16H207.285V53.16ZM205.005 55.16V57.48H209.005V55.16H205.005ZM207.005 59.48H208.565V55.48H207.005V59.48ZM208.565 59.48C212.027 59.48 214.899 59.3186 217.146 58.9773L216.545 55.0227C214.579 55.3214 211.93 55.48 208.565 55.48V59.48ZM214.845 57V62.56H218.845V57H214.845ZM216.545 60.5827C214.579 60.8814 211.93 61.04 208.565 61.04V65.04C212.027 65.04 214.899 64.8786 217.146 64.5373L216.545 60.5827ZM208.565 61.04H191.205V65.04H208.565V61.04ZM194.005 67.08H201.725V63.08H194.005V67.08ZM199.725 65.08V70.44H203.725V65.08H199.725ZM201.725 72.44H227.165V68.44H201.725V72.44ZM225.165 70.44V76.04H229.165V70.44H225.165ZM227.165 74.04H194.005V78.04H227.165V74.04ZM196.005 76.04V65.08H192.005V76.04H196.005ZM201.725 43.8C200.577 43.8 199.451 44.1403 198.555 44.9836L201.296 47.8964C201.307 47.8863 201.381 47.8 201.725 47.8V43.8ZM198.602 44.9403C197.653 45.7776 197.245 46.9062 197.245 48.08H201.245C201.245 47.9518 201.266 47.9086 201.263 47.916C201.262 47.9189 201.258 47.9261 201.252 47.9343C201.247 47.9423 201.244 47.9441 201.249 47.9397L198.602 44.9403ZM197.245 48.08C197.245 49.2571 197.636 50.3916 198.555 51.2564L201.296 48.3436C201.286 48.3339 201.282 48.3288 201.282 48.3279C201.281 48.327 201.279 48.3238 201.275 48.3147C201.269 48.2979 201.245 48.2298 201.245 48.08H197.245ZM198.602 51.2997C199.501 52.0931 200.611 52.4 201.725 52.4V48.4C201.347 48.4 201.256 48.3069 201.249 48.3003L198.602 51.2997ZM201.725 52.4H205.525V48.4H201.725V52.4ZM205.525 52.4C206.64 52.4 207.75 52.0931 208.649 51.2997L206.002 48.3003C205.995 48.3069 205.904 48.4 205.525 48.4V52.4ZM208.696 51.2564C209.615 50.3916 210.005 49.2571 210.005 48.08H206.005C206.005 48.2298 205.982 48.2979 205.976 48.3147C205.972 48.3238 205.97 48.327 205.969 48.3279C205.969 48.3288 205.965 48.3339 205.955 48.3436L208.696 51.2564ZM210.005 48.08C210.005 46.9062 209.598 45.7776 208.649 44.9403L206.002 47.9397C206.007 47.9441 206.004 47.9423 205.999 47.9343C205.993 47.9261 205.989 47.9189 205.988 47.916C205.985 47.9086 206.005 47.9518 206.005 48.08H210.005ZM208.696 44.9836C207.8 44.1403 206.674 43.8 205.525 43.8V47.8C205.87 47.8 205.944 47.8863 205.955 47.8964L208.696 44.9836ZM205.525 43.8H201.725V47.8H205.525V43.8ZM253.445 39.28L255.445 39.3174C255.455 38.7806 255.249 38.2622 254.873 37.8791C254.497 37.4959 253.982 37.28 253.445 37.28V39.28ZM252.325 46.96L250.413 46.375C250.231 46.9704 250.336 47.6167 250.699 48.1232C251.061 48.6297 251.638 48.9386 252.26 48.9589L252.325 46.96ZM259.325 48.76L258.422 50.5446L258.431 50.5489L259.325 48.76ZM264.885 53.72L263.224 54.8341C263.23 54.8419 263.235 54.8496 263.24 54.8574L264.885 53.72ZM267.525 61.6V63.6C268.086 63.6 268.62 63.365 268.999 62.9521C269.378 62.5393 269.566 61.9864 269.518 61.4282L267.525 61.6ZM259.805 61.6L257.842 61.98C258.024 62.9206 258.847 63.6 259.805 63.6V61.6ZM257.805 57.2L256.221 58.421C256.227 58.4278 256.232 58.4346 256.237 58.4414L257.805 57.2ZM254.125 54.24L253.244 56.0353C253.253 56.0397 253.262 56.0439 253.271 56.0481L254.125 54.24ZM249.325 53.16V51.16C248.683 51.16 248.08 51.4686 247.704 51.9896L249.325 53.16ZM242.125 59.32L243.033 61.1023C243.037 61.1002 243.041 61.098 243.046 61.0958L242.125 59.32ZM232.125 62H230.125C230.125 62.5577 230.358 63.09 230.768 63.4686C231.177 63.8471 231.726 64.0375 232.282 63.9939L232.125 62ZM232.125 55.4L231.757 53.4343C230.811 53.6116 230.125 54.4376 230.125 55.4H232.125ZM241.965 50.2L240.45 48.8947L240.449 48.8959L241.965 50.2ZM245.565 39.28V37.28C244.475 37.28 243.585 38.1543 243.566 39.2451L245.565 39.28ZM268.005 75.04V77.04C269.11 77.04 270.005 76.1446 270.005 75.04H268.005ZM231.205 75.04H229.205C229.205 76.1446 230.101 77.04 231.205 77.04V75.04ZM231.205 68.88V66.88C230.101 66.88 229.205 67.7754 229.205 68.88H231.205ZM245.725 68.88V70.88C246.83 70.88 247.725 69.9846 247.725 68.88H245.725ZM245.725 60.48V58.48C244.621 58.48 243.725 59.3754 243.725 60.48H245.725ZM253.485 60.48H255.485C255.485 59.3754 254.59 58.48 253.485 58.48V60.48ZM253.485 68.88H251.485C251.485 69.9846 252.381 70.88 253.485 70.88V68.88ZM268.005 68.88H270.005C270.005 67.7754 269.11 66.88 268.005 66.88V68.88ZM251.446 39.2426C251.395 41.9467 251.042 44.3177 250.413 46.375L254.238 47.545C254.995 45.0689 255.389 42.3199 255.445 39.3174L251.446 39.2426ZM252.26 48.9589C254.419 49.0293 256.467 49.5548 258.422 50.5445L260.228 46.9755C257.758 45.7252 255.139 45.0507 252.391 44.9611L252.26 48.9589ZM258.431 50.5489C260.345 51.506 261.94 52.9195 263.224 54.8341L266.546 52.6059C264.897 50.1471 262.786 48.254 260.22 46.9711L258.431 50.5489ZM263.24 54.8574C264.503 56.683 265.291 58.9616 265.533 61.7718L269.518 61.4282C269.227 58.0518 268.255 55.077 266.531 52.5826L263.24 54.8574ZM267.525 59.6H259.805V63.6H267.525V59.6ZM261.769 61.22C261.39 59.2622 260.592 57.498 259.374 55.9586L256.237 58.4414C257.045 59.462 257.581 60.6311 257.842 61.98L261.769 61.22ZM259.389 55.979C258.209 54.4473 256.732 53.2599 254.98 52.4319L253.271 56.0481C254.452 56.6068 255.429 57.3927 256.221 58.421L259.389 55.979ZM255.007 52.4447C253.249 51.5819 251.345 51.16 249.325 51.16V55.16C250.772 55.16 252.068 55.4581 253.244 56.0353L255.007 52.4447ZM247.704 51.9896C246.027 54.3131 243.871 56.163 241.205 57.5442L243.046 61.0958C246.247 59.437 248.891 57.1802 250.947 54.3304L247.704 51.9896ZM241.218 57.5377C238.549 58.8966 235.476 59.7306 231.969 60.0061L232.282 63.9939C236.241 63.6828 239.836 62.73 243.033 61.1023L241.218 57.5377ZM234.125 62V55.4H230.125V62H234.125ZM232.494 57.3657C237.1 56.5022 240.828 54.59 243.482 51.5041L240.449 48.8959C238.516 51.1434 235.684 52.6978 231.757 53.4343L232.494 57.3657ZM243.481 51.5053C246.185 48.3659 247.479 44.2305 247.565 39.3149L243.566 39.2451C243.492 43.5028 242.386 46.6474 240.45 48.8947L243.481 51.5053ZM245.565 41.28H253.445V37.28H245.565V41.28ZM268.005 73.04H231.205V77.04H268.005V73.04ZM233.205 75.04V68.88H229.205V75.04H233.205ZM231.205 70.88H245.725V66.88H231.205V70.88ZM247.725 68.88V60.48H243.725V68.88H247.725ZM245.725 62.48H253.485V58.48H245.725V62.48ZM251.485 60.48V68.88H255.485V60.48H251.485ZM253.485 70.88H268.005V66.88H253.485V70.88ZM266.005 68.88V75.04H270.005V68.88H266.005Z" fill="#4E60FF" mask="url(#path-1-outside-1_654_11789)"/>
</g>
<path d="M128.04 15.784H105.96V12.208H114.672V10.648H106.872V1.696H126.84V5.032H111.384V7.312H126.984V10.648H119.328V12.208H128.04V15.784ZM106.968 16.84H111.648V20.392H127.296V23.824H106.968V16.84ZM147 13.816H143.784V22.792H130.464V2.032H134.832V7.912H139.464V2.032H143.784V9.952H147V1.432H151.56V23.824H147V13.816ZM139.464 18.976V11.68H134.832V18.976H139.464ZM171 1.432H175.56V23.824H171V1.432ZM169.032 22.624H154.536V2.2H159.096V18.808H169.032V22.624Z" fill="#DDE8FF"/>
<defs>
<filter id="filter0_d_654_11789" x="-0.00585938" y="19.4" width="288.012" height="77.64" filterUnits="userSpaceOnUse" color-interpolation-filters="sRGB">
<feFlood flood-opacity="0" result="BackgroundImageFix"/>
<feColorMatrix in="SourceAlpha" type="matrix" values="0 0 0 0 0 0 0 0 0 0 0 0 0 0 0 0 0 0 127 0" result="hardAlpha"/>
<feOffset dy="1"/>
<feGaussianBlur stdDeviation="10"/>
<feComposite in2="hardAlpha" operator="out"/>
<feColorMatrix type="matrix" values="0 0 0 0 0.0862745 0 0 0 0 0.0901961 0 0 0 0 0.313726 0 0 0 0.07 0"/>
<feBlend mode="normal" in2="BackgroundImageFix" result="effect1_dropShadow_654_11789"/>
<feBlend mode="normal" in="SourceGraphic" in2="effect1_dropShadow_654_11789" result="shape"/>
</filter>
<radialGradient id="paint0_angular_654_11789" cx="0" cy="0" r="1" gradientUnits="userSpaceOnUse" gradientTransform="translate(38 31.5) rotate(19.15) scale(202.718 41.8307)">
<stop offset="0.245" stop-color="#FCFCFF"/>
<stop offset="0.87" stop-color="white"/>
<stop offset="1" stop-color="#C2D4FF"/>
</radialGradient>
</defs>
</svg>
