<svg width="12" height="12" viewBox="0 0 12 12" fill="none" xmlns="http://www.w3.org/2000/svg">
<path fill-rule="evenodd" clip-rule="evenodd" d="M6 1C3.23858 1 1 3.23858 1 6C1 8.76142 3.23858 11 6 11C8.76142 11 11 8.76142 11 6C11 4.67392 10.4732 3.40215 9.53553 2.46447C8.59785 1.52678 7.32608 1 6 1ZM6.355 8.855C6.3064 8.89917 6.25059 8.93468 6.19 8.96C6.06898 9.01349 5.93102 9.01349 5.81 8.96C5.74941 8.93468 5.6936 8.89917 5.645 8.855C5.55141 8.76064 5.49923 8.6329 5.5 8.5C5.49923 8.3671 5.55141 8.23936 5.645 8.145C5.7632 8.02794 5.93188 7.97734 6.095 8.01C6.12812 8.01464 6.16023 8.02478 6.19 8.04C6.22186 8.05094 6.25213 8.06608 6.28 8.085C6.30619 8.10346 6.33124 8.1235 6.355 8.145C6.44637 8.24082 6.49816 8.36762 6.5 8.5C6.50077 8.6329 6.44859 8.76064 6.355 8.855ZM6 7C6.27614 7 6.5 6.77614 6.5 6.5V3.5C6.5 3.22386 6.27614 3 6 3C5.72386 3 5.5 3.22386 5.5 3.5V6.5C5.5 6.77614 5.72386 7 6 7Z" fill="#C9CDD2"/>
</svg>
