<svg width="20" height="22" viewBox="0 0 20 22" fill="none" xmlns="http://www.w3.org/2000/svg">
<path fill-rule="evenodd" clip-rule="evenodd" d="M14.9503 15.0681C15.413 14.608 16.0274 14.3502 16.667 14.3476C18.0477 14.3476 19.167 15.5135 19.167 16.9518C19.167 18.39 18.0477 19.5559 16.667 19.5559C15.2863 19.5559 14.167 18.39 14.167 16.9518C14.1588 16.8391 14.1588 16.7259 14.167 16.6132L6.33366 12.1514C5.89319 12.9677 5.06592 13.4748 4.16699 13.4795C2.78628 13.4795 1.66699 12.3136 1.66699 10.8754C1.66699 9.43713 2.78628 8.2712 4.16699 8.2712C5.06592 8.27594 5.89319 8.78305 6.33366 9.59933L14.167 5.13752C14.1588 5.02484 14.1588 4.91167 14.167 4.79898C14.1627 3.56269 14.9934 2.49363 16.1551 2.24049C17.3168 1.98736 18.4892 2.61993 18.961 3.75436C19.4328 4.8888 19.0738 6.21238 18.1019 6.92198C17.13 7.63158 15.8131 7.53158 14.9503 6.68266L7.57533 10.8754L14.9503 15.0681ZM17.5003 4.79898C17.5003 4.31957 17.1272 3.93093 16.667 3.93093C16.2068 3.93093 15.8337 4.31957 15.8337 4.79898C15.8337 5.2784 16.2068 5.66704 16.667 5.66704C17.1272 5.66704 17.5003 5.2784 17.5003 4.79898ZM4.16699 11.7434C3.70675 11.7434 3.33366 11.3548 3.33366 10.8754C3.33366 10.396 3.70675 10.0073 4.16699 10.0073C4.62723 10.0073 5.00033 10.396 5.00033 10.8754C5.00033 11.3548 4.62723 11.7434 4.16699 11.7434ZM15.8337 16.9518C15.8337 17.4312 16.2068 17.8198 16.667 17.8198C17.1272 17.8198 17.5003 17.4312 17.5003 16.9518C17.5003 16.4723 17.1272 16.0837 16.667 16.0837C16.2068 16.0837 15.8337 16.4723 15.8337 16.9518Z" fill="#4E60FF"/>
</svg>
